<svg width="34" height="34" viewBox="0 0 34 34" fill="none" xmlns="http://www.w3.org/2000/svg">
<path d="M12.629 26.5287C12.8908 26.7905 13.2247 26.9135 13.5566 26.9135C13.8818 26.9135 14.2342 26.7947 14.4872 26.5256C14.9926 26.0169 14.9916 25.1809 14.4842 24.6734L6.81262 17.0019L14.4842 9.33032C14.9926 8.82185 14.9926 7.98356 14.4842 7.4751C13.9757 6.96663 13.1374 6.96663 12.629 7.4751L4.02979 16.0743C3.52132 16.5827 3.52132 17.421 4.02979 17.9295L12.629 26.5287Z" fill="#448EE4" stroke="#448EE4" stroke-width="0.5"/>
<path d="M5.19922 18.3125H29.0417C29.7606 18.3125 30.3542 17.7189 30.3542 17C30.3542 16.2811 29.7606 15.6875 29.0417 15.6875H5.19922C4.48031 15.6875 3.88672 16.2811 3.88672 17C3.88672 17.7189 4.48031 18.3125 5.19922 18.3125Z" fill="#448EE4" stroke="#448EE4" stroke-width="0.5"/>
</svg>
