<svg width="58" height="58" viewBox="0 0 58 58" fill="none" xmlns="http://www.w3.org/2000/svg">
<path d="M29 4.5C15.5005 4.5 4.5 15.5005 4.5 29C4.5 42.4996 15.5005 53.5 29 53.5C42.4996 53.5 53.5 42.4996 53.5 29C53.5 15.5005 42.4996 4.5 29 4.5ZM37.232 34.6351C37.9426 35.3455 37.9426 36.5215 37.232 37.232C36.8645 37.5995 36.3991 37.771 35.9335 37.771C35.468 37.771 35.0026 37.5995 34.6351 37.232L29 31.597L23.365 37.232C22.9975 37.5995 22.532 37.771 22.0666 37.771C21.601 37.771 21.1355 37.5995 20.768 37.232C20.0575 36.5215 20.0575 35.3455 20.768 34.6351L26.4031 29L20.768 23.365C20.0575 22.6546 20.0575 21.4786 20.768 20.768C21.4786 20.0575 22.6546 20.0575 23.365 20.768L29 26.4031L34.6351 20.768C35.3455 20.0575 36.5215 20.0575 37.232 20.768C37.9426 21.4786 37.9426 22.6546 37.232 23.365L31.597 29L37.232 34.6351Z" fill="#FE345B"/>
</svg>
