<svg width="21" height="22" viewBox="0 0 21 22" fill="none" xmlns="http://www.w3.org/2000/svg">
<path d="M10.3606 15.7581H1.88199C1.53437 15.7581 1.24609 15.4698 1.24609 15.1222C1.24609 14.7746 1.53437 14.4863 1.88199 14.4863H10.3606C10.7082 14.4863 10.9965 14.7746 10.9965 15.1222C10.9965 15.4783 10.7082 15.7581 10.3606 15.7581Z" fill="#448EE4"/>
<path d="M8.47767 19.9473H3.77202C1.91521 19.9473 1.25391 19.2945 1.25391 17.4461V13.9699C1.25391 12.1216 1.91521 11.4688 3.77202 11.4688H8.47767C10.3345 11.4688 10.9958 12.1216 10.9958 13.9699V17.4546C10.9958 19.2945 10.3345 19.9473 8.47767 19.9473ZM3.76353 12.7405C2.61045 12.7405 2.51721 12.8338 2.51721 13.9699V17.4546C2.51721 18.5908 2.61045 18.684 3.76353 18.684H8.46918C9.62227 18.684 9.71551 18.5908 9.71551 17.4546V13.9699C9.71551 12.8338 9.62227 12.7405 8.46918 12.7405H3.76353Z" fill="#448EE4"/>
<path d="M12.9042 19.9457C12.6753 19.9457 12.4633 19.8186 12.3531 19.6236C12.2429 19.4201 12.2429 19.1827 12.3616 18.9792L13.2518 17.4954C13.4299 17.1987 13.8199 17.0969 14.1252 17.275C14.4304 17.453 14.5237 17.843 14.3456 18.1483L14.1167 18.5298C16.4568 17.9787 18.2118 15.876 18.2118 13.3664C18.2118 13.0187 18.5001 12.7305 18.8477 12.7305C19.1954 12.7305 19.4836 13.0187 19.4836 13.3664C19.4752 16.9952 16.5246 19.9457 12.9042 19.9457Z" fill="#448EE4"/>
<path d="M1.88199 8.92554C1.53437 8.92554 1.24609 8.63727 1.24609 8.28965C1.24609 4.66929 4.19664 1.71875 7.81699 1.71875C8.04591 1.71875 8.2579 1.84593 8.36812 2.04094C8.47834 2.24442 8.47833 2.48182 8.35963 2.68531L7.46939 4.16906C7.29134 4.46581 6.9013 4.56755 6.59607 4.3895C6.29085 4.21145 6.19757 3.82144 6.37562 3.51621L6.60456 3.13467C4.26447 3.68578 2.50939 5.78847 2.50939 8.29812C2.51787 8.63727 2.22961 8.92554 1.88199 8.92554Z" fill="#448EE4"/>
<path d="M15.8731 10.6213C13.4228 10.6213 11.4219 8.62879 11.4219 6.17C11.4219 3.71122 13.4143 1.71875 15.8731 1.71875C18.3319 1.71875 20.3244 3.71122 20.3244 6.17C20.3244 8.62879 18.3234 10.6213 15.8731 10.6213ZM15.8731 2.99054C14.1181 2.99054 12.6937 4.41494 12.6937 6.17C12.6937 7.92507 14.1181 9.34947 15.8731 9.34947C17.6282 9.34947 19.0526 7.92507 19.0526 6.17C19.0526 4.41494 17.6282 2.99054 15.8731 2.99054Z" fill="#448EE4"/>
</svg>
