<svg width="21" height="21" viewBox="0 0 21 21" fill="none" xmlns="http://www.w3.org/2000/svg">
<path d="M8.9684 15.677H5.75503C5.40741 15.677 5.11914 15.3888 5.11914 15.0411V10.7001C5.11914 9.81835 5.83981 9.09766 6.72158 9.09766H8.9684C9.31602 9.09766 9.60429 9.38593 9.60429 9.73355V15.0327C9.60429 15.3888 9.31602 15.677 8.9684 15.677ZM6.39093 14.4053H8.3325V10.3779H6.72158C6.54353 10.3779 6.39093 10.522 6.39093 10.7086V14.4053Z" fill="#448EE4"/>
<path d="M12.1735 15.6787H8.96011C8.61249 15.6787 8.32422 15.3904 8.32422 15.0428V6.85246C8.32422 5.97069 9.04488 5.25 9.92666 5.25H11.2154C12.0972 5.25 12.8179 5.97069 12.8179 6.85246V15.0428C12.8094 15.3904 12.5296 15.6787 12.1735 15.6787ZM9.60447 14.4069H11.5461V6.85246C11.5461 6.67441 11.4019 6.52179 11.2154 6.52179H9.92666C9.74861 6.52179 9.59601 6.66593 9.59601 6.85246V14.4069H9.60447Z" fill="#448EE4"/>
<path d="M15.3922 15.6765H12.1789C11.8312 15.6765 11.543 15.3882 11.543 15.0406V11.1828C11.543 10.8351 11.8312 10.5469 12.1789 10.5469H14.4257C15.3075 10.5469 16.0281 11.2676 16.0281 12.1493V15.0406C16.0281 15.3882 15.7483 15.6765 15.3922 15.6765ZM12.8148 14.4047H14.7563V12.1493C14.7563 11.9713 14.6122 11.8187 14.4257 11.8187H12.8148V14.4047Z" fill="#448EE4"/>
<path d="M13.1131 19.5786H8.02598C3.42211 19.5786 1.45508 17.6115 1.45508 13.0077V7.92051C1.45508 3.31664 3.42211 1.34961 8.02598 1.34961H13.1131C17.717 1.34961 19.684 3.31664 19.684 7.92051V13.0077C19.684 17.6115 17.717 19.5786 13.1131 19.5786ZM8.02598 2.6214C4.11735 2.6214 2.72686 4.01188 2.72686 7.92051V13.0077C2.72686 16.9163 4.11735 18.3068 8.02598 18.3068H13.1131C17.0217 18.3068 18.4122 16.9163 18.4122 13.0077V7.92051C18.4122 4.01188 17.0217 2.6214 13.1131 2.6214H8.02598Z" fill="#448EE4"/>
</svg>
