<svg version="1.1" id="Uploaded to svgrepo.com" xmlns="http://www.w3.org/2000/svg" xmlns:xlink="http://www.w3.org/1999/xlink" width="24px" height="24px" viewBox="0 0 0.96 0.96" xml:space="preserve"><style type="text/css">.bentblocks_een{fill:#448EE4;}</style><path class="bentblocks_een" d="M0.735 0.225c-0.141 -0.141 -0.369 -0.141 -0.509 0 -0.141 0.141 -0.141 0.369 0 0.509 0.141 0.141 0.369 0.141 0.509 0 0.141 -0.141 0.141 -0.369 0 -0.509zm-0.042 0.467a0.3 0.3 0 0 1 -0.424 0c-0.117 -0.117 -0.117 -0.307 0 -0.424a0.3 0.3 0 0 1 0.424 0A0.298 0.298 0 0 1 0.78 0.48a0.298 0.298 0 0 1 -0.088 0.212zm-0.042 -0.339L0.522 0.48l0.127 0.127 -0.042 0.042L0.48 0.522l-0.127 0.127 -0.042 -0.042L0.438 0.48l-0.127 -0.127 0.042 -0.042L0.48 0.438l0.127 -0.127 0.042 0.042z"/></svg>