<svg fill="#FF0000" width="24px" height="24px" viewBox="0 0 0.72 0.72" xmlns="http://www.w3.org/2000/svg"><path d="M0.614 0.105a0.359 0.359 0 0 0 -0.255 -0.105C0.161 0 0 0.161 0 0.36c0 0.099 0.04 0.189 0.105 0.255A0.359 0.359 0 0 0 0.36 0.72c0.199 0 0.36 -0.161 0.36 -0.36 0 -0.099 -0.04 -0.189 -0.105 -0.255zm-0.046 0.463a0.294 0.294 0 0 1 -0.208 0.086c-0.163 0 -0.295 -0.132 -0.295 -0.295a0.294 0.294 0 0 1 0.086 -0.208 0.294 0.294 0 0 1 0.208 -0.086c0.163 0 0.295 0.132 0.295 0.295a0.294 0.294 0 0 1 -0.086 0.208z"/><path d="m0.406 0.36 0.116 -0.116a0.033 0.033 0 0 0 -0.046 -0.046l0 0 -0.116 0.116 -0.116 -0.116A0.033 0.033 0 0 0 0.198 0.244l0 0 0.116 0.116 -0.116 0.116a0.033 0.033 0 1 0 0.046 0.046l0 0 0.116 -0.116 0.116 0.116a0.033 0.033 0 1 0 0.046 -0.046l0 0z"/></svg>