<svg width="22" height="21" viewBox="0 0 22 21" fill="none" xmlns="http://www.w3.org/2000/svg">
<path d="M11.0669 19.7305C7.67546 19.7305 4.91992 17.2972 4.91992 14.3042V11.1671C4.91992 10.8195 5.20819 10.5312 5.55582 10.5312C5.90344 10.5312 6.19171 10.8195 6.19171 11.1671C6.19171 13.3885 8.28592 15.0673 11.0669 15.0673C13.8479 15.0673 15.9421 13.3885 15.9421 11.1671C15.9421 10.8195 16.2303 10.5312 16.578 10.5312C16.9256 10.5312 17.2139 10.8195 17.2139 11.1671V14.3042C17.2139 17.2972 14.4583 19.7305 11.0669 19.7305ZM6.19171 14.3975C6.25106 16.6443 8.4131 18.4587 11.0669 18.4587C13.7207 18.4587 15.8827 16.6443 15.9421 14.3975C14.8399 15.593 13.0933 16.3391 11.0669 16.3391C9.04051 16.3391 7.3024 15.593 6.19171 14.3975Z" fill="#448EE4"/>
<path d="M11.0669 12.1002C8.7268 12.1002 6.62411 11.0488 5.5982 9.35311C5.15731 8.63243 4.91992 7.79306 4.91992 6.92824C4.91992 5.46993 5.57278 4.0964 6.7513 3.06201C7.90438 2.05306 9.439 1.50195 11.0669 1.50195C12.6948 1.50195 14.2209 2.05306 15.3825 3.05353C16.561 4.0964 17.2139 5.46993 17.2139 6.92824C17.2139 7.79306 16.9765 8.62396 16.5356 9.35311C15.5097 11.0488 13.407 12.1002 11.0669 12.1002ZM11.0669 2.77374C9.74423 2.77374 8.50637 3.21463 7.58221 4.02857C6.68348 4.8086 6.19171 5.84299 6.19171 6.92824C6.19171 7.56414 6.36127 8.15764 6.68345 8.69179C7.48892 10.0144 9.16769 10.8284 11.0669 10.8284C12.9661 10.8284 14.6449 10.006 15.4503 8.69179C15.781 8.15764 15.9421 7.56414 15.9421 6.92824C15.9421 5.84299 15.4503 4.8086 14.5431 4.01161C13.6189 3.21462 12.3895 2.77374 11.0669 2.77374Z" fill="#448EE4"/>
<path d="M11.0669 16.3395C7.56524 16.3395 4.91992 14.1181 4.91992 11.1675V6.92824C4.91992 3.93531 7.67546 1.50195 11.0669 1.50195C12.6948 1.50195 14.2209 2.05306 15.3825 3.05353C16.561 4.0964 17.2139 5.46993 17.2139 6.92824V11.1675C17.2139 14.1181 14.5685 16.3395 11.0669 16.3395ZM11.0669 2.77374C8.37918 2.77374 6.19171 4.63903 6.19171 6.92824V11.1675C6.19171 13.3889 8.28592 15.0677 11.0669 15.0677C13.8479 15.0677 15.9421 13.3889 15.9421 11.1675V6.92824C15.9421 5.84299 15.4503 4.8086 14.5431 4.01161C13.6189 3.21462 12.3895 2.77374 11.0669 2.77374Z" fill="#448EE4"/>
</svg>
