<svg width="24px" height="24px" viewBox="0 0 0.72 0.72" fill="none" xmlns="http://www.w3.org/2000/svg"><path d="M0.21 0.12a0.06 0.06 0 0 1 0.06 -0.06h0.18a0.06 0.06 0 0 1 0.06 0.06v0.06h0.12a0.03 0.03 0 1 1 0 0.06h-0.032l-0.026 0.364A0.06 0.06 0 0 1 0.512 0.66H0.208a0.06 0.06 0 0 1 -0.06 -0.056L0.122 0.24H0.09a0.03 0.03 0 0 1 0 -0.06h0.12V0.12zm0.06 0.06h0.18V0.12H0.27v0.06zM0.182 0.24l0.026 0.36H0.512l0.026 -0.36H0.182zM0.3 0.3a0.03 0.03 0 0 1 0.03 0.03v0.18a0.03 0.03 0 1 1 -0.06 0v-0.18a0.03 0.03 0 0 1 0.03 -0.03zm0.12 0a0.03 0.03 0 0 1 0.03 0.03v0.18a0.03 0.03 0 1 1 -0.06 0v-0.18a0.03 0.03 0 0 1 0.03 -0.03z" fill="#FF0000"/></svg>