<svg width="21" height="21" viewBox="0 0 21 21" fill="none" xmlns="http://www.w3.org/2000/svg">
<path d="M15.6744 19.73H7.10259C6.83128 19.73 6.59387 19.5605 6.50061 19.3146C6.40735 19.0602 6.48365 18.7804 6.68714 18.6109C6.89062 18.4413 7.07715 18.2209 7.21281 17.9835C7.48412 17.551 7.61978 17.0593 7.61978 16.5591C7.61978 15.0414 6.38191 13.8035 4.86425 13.8035C4.23683 13.8035 3.64333 14.0155 3.14309 14.414C2.94809 14.5666 2.69373 14.592 2.47329 14.4903C2.25284 14.3885 2.11719 14.1596 2.11719 13.9137V10.2086C2.11719 8.09745 3.82986 6.38477 5.94102 6.38477H15.6744C17.7856 6.38477 19.4983 8.09745 19.4983 10.2086V11.4295C19.4983 11.7772 19.21 12.0654 18.8624 12.0654H17.1497C16.853 12.0654 16.5816 12.1756 16.3866 12.3791L16.3782 12.3876C16.1408 12.6165 16.0305 12.9302 16.056 13.2524C16.1068 13.812 16.641 14.2613 17.2514 14.2613H18.8624C19.21 14.2613 19.4983 14.5496 19.4983 14.8972V15.9062C19.4983 18.0174 17.7856 19.73 15.6744 19.73ZM8.41677 18.4583H15.6744C17.0819 18.4583 18.2265 17.3136 18.2265 15.9062V15.5331H17.2514C15.9712 15.5331 14.8859 14.5835 14.7842 13.3626C14.7164 12.6674 14.9707 11.9806 15.4794 11.4804C15.9203 11.031 16.5138 10.7851 17.1497 10.7851H18.2265V10.2001C18.2265 8.79268 17.0819 7.64807 15.6744 7.64807H5.94102C4.53358 7.64807 3.38897 8.79268 3.38897 10.2001V12.8115C3.86377 12.625 4.36401 12.5232 4.87272 12.5232C7.09411 12.5232 8.90005 14.3292 8.90005 16.5506C8.90005 17.2204 8.73048 17.8817 8.41677 18.4583Z" fill="#448EE4"/>
<path d="M2.75308 11.5993C2.40546 11.5993 2.11719 11.311 2.11719 10.9634V7.08871C2.11719 5.8254 2.91418 4.68074 4.0927 4.23138L10.8247 1.68781C11.5199 1.42497 12.2915 1.51828 12.8935 1.9422C13.5039 2.36613 13.86 3.05289 13.86 3.79053V7.01238C13.86 7.36 13.5717 7.64827 13.2241 7.64827C12.8765 7.64827 12.5882 7.36 12.5882 7.01238V3.79053C12.5882 3.46834 12.4356 3.17158 12.1643 2.98505C11.893 2.79852 11.5708 2.75613 11.2656 2.87483L4.53358 5.4184C3.84682 5.68124 3.3805 6.35107 3.3805 7.08871V10.9634C3.38898 11.3195 3.1007 11.5993 2.75308 11.5993Z" fill="#448EE4"/>
<path d="M17.2476 15.5331C15.9673 15.5331 14.8821 14.5835 14.7803 13.3626C14.7125 12.6589 14.9668 11.9722 15.4756 11.4719C15.908 11.031 16.5015 10.7852 17.1374 10.7852H18.9009C19.7403 10.8106 20.3847 11.4719 20.3847 12.2858V14.0325C20.3847 14.8464 19.7403 15.5077 18.9263 15.5331H17.2476ZM18.884 12.0569H17.1458C16.8491 12.0569 16.5778 12.1672 16.3828 12.3706C16.1369 12.608 16.0182 12.9302 16.0521 13.2524C16.103 13.812 16.6371 14.2614 17.2476 14.2614H18.9094C19.0196 14.2614 19.1214 14.1596 19.1214 14.0325V12.2858C19.1214 12.1587 19.0196 12.0654 18.884 12.0569Z" fill="#448EE4"/>
<path d="M12.5006 11.2523H6.56558C6.21796 11.2523 5.92969 10.964 5.92969 10.6164C5.92969 10.2687 6.21796 9.98047 6.56558 9.98047H12.5006C12.8482 9.98047 13.1365 10.2687 13.1365 10.6164C13.1365 10.964 12.8482 11.2523 12.5006 11.2523Z" fill="#448EE4"/>
<path d="M4.87107 20.5781C3.46363 20.5781 2.14097 19.832 1.42877 18.6195C1.04723 18.0091 0.84375 17.2884 0.84375 16.5508C0.84375 15.3129 1.39486 14.1683 2.35294 13.4052C3.06514 12.8371 3.96387 12.5234 4.87107 12.5234C7.09246 12.5234 8.8984 14.3294 8.8984 16.5508C8.8984 17.2884 8.69491 18.0091 8.31338 18.628C8.10989 18.9841 7.8301 19.3063 7.50791 19.5776C6.80419 20.222 5.86307 20.5781 4.87107 20.5781ZM4.87107 13.7952C4.24366 13.7952 3.65016 14.0072 3.14992 14.4057C2.49707 14.9228 2.11554 15.7114 2.11554 16.5508C2.11554 17.051 2.25119 17.5427 2.51403 17.9667C3.01427 18.8145 3.89604 19.3063 4.87107 19.3063C5.54088 19.3063 6.18525 19.0604 6.67701 18.6195C6.89745 18.433 7.08398 18.2126 7.21964 17.9752C7.49095 17.5427 7.62661 17.051 7.62661 16.5508C7.62661 15.0331 6.38874 13.7952 4.87107 13.7952Z" fill="#448EE4"/>
<path d="M5.77822 18.0684C5.61713 18.0684 5.45604 18.009 5.32886 17.8819L3.53988 16.0929C3.294 15.847 3.294 15.4401 3.53988 15.1942C3.78576 14.9483 4.19273 14.9483 4.43861 15.1942L6.22759 16.9831C6.47346 17.229 6.47346 17.636 6.22759 17.8819C6.10041 18.009 5.93931 18.0684 5.77822 18.0684Z" fill="#448EE4"/>
<path d="M3.95799 18.0938C3.7969 18.0938 3.63581 18.0344 3.50863 17.9073C3.26275 17.6614 3.26275 17.2544 3.50863 17.0085L5.2976 15.2196C5.54348 14.9737 5.95046 14.9737 6.19634 15.2196C6.44221 15.4654 6.44221 15.8724 6.19634 16.1183L4.40735 17.9073C4.28018 18.0344 4.11908 18.0938 3.95799 18.0938Z" fill="#448EE4"/>
</svg>
