<svg width="44" height="44" viewBox="0 0 44 44" fill="none" xmlns="http://www.w3.org/2000/svg">
<path d="M21.9974 3.66797C11.8957 3.66797 3.66406 11.8996 3.66406 22.0013C3.66406 32.103 11.8957 40.3346 21.9974 40.3346C32.0991 40.3346 40.3307 32.103 40.3307 22.0013C40.3307 11.8996 32.0991 3.66797 21.9974 3.66797ZM28.1574 26.218C28.6891 26.7496 28.6891 27.6296 28.1574 28.1613C27.8824 28.4363 27.5341 28.5646 27.1857 28.5646C26.8374 28.5646 26.4891 28.4363 26.2141 28.1613L21.9974 23.9446L17.7807 28.1613C17.5057 28.4363 17.1574 28.5646 16.8091 28.5646C16.4607 28.5646 16.1124 28.4363 15.8374 28.1613C15.3057 27.6296 15.3057 26.7496 15.8374 26.218L20.0541 22.0013L15.8374 17.7846C15.3057 17.253 15.3057 16.373 15.8374 15.8413C16.3691 15.3096 17.2491 15.3096 17.7807 15.8413L21.9974 20.058L26.2141 15.8413C26.7457 15.3096 27.6257 15.3096 28.1574 15.8413C28.6891 16.373 28.6891 17.253 28.1574 17.7846L23.9407 22.0013L28.1574 26.218Z" fill="#FE345B"/>
</svg>
