<svg fill="#006D5B" height="24px" width="24px" version="1.1" id="Layer_1" xmlns="http://www.w3.org/2000/svg" xmlns:xlink="http://www.w3.org/1999/xlink" viewBox="0 0 1.26 1.26" enable-background="new 0 0 42 42" xml:space="preserve"><path d="M0.459 0.603c0 0.093 0.078 0.171 0.171 0.171s0.171 -0.078 0.171 -0.171 -0.078 -0.171 -0.171 -0.171 -0.171 0.078 -0.171 0.171zm0.243 0.369C0.903 0.927 1.215 0.66 1.215 0.66s-0.231 -0.36 -0.54 -0.399c-0.018 -0.003 -0.078 -0.003 -0.09 -0.003 -0.3 0.03 -0.54 0.411 -0.54 0.411s0.261 0.258 0.51 0.297c0.027 0.012 0.117 0.012 0.147 0.006zM0.333 0.621c0 -0.156 0.132 -0.282 0.297 -0.282s0.297 0.126 0.297 0.282S0.795 0.9 0.63 0.9s-0.297 -0.126 -0.297 -0.279z"/></svg>