<svg width="20" height="20" viewBox="0 0 20 20" fill="none" xmlns="http://www.w3.org/2000/svg">
<path d="M18.332 4.9974V7.01406C18.332 8.33073 17.4987 9.16406 16.182 9.16406H13.332V3.33906C13.332 2.41406 14.0904 1.66406 15.0154 1.66406C15.9237 1.6724 16.757 2.03906 17.357 2.63906C17.957 3.24739 18.332 4.08073 18.332 4.9974Z" stroke="#4E4E4E" stroke-width="1.5" stroke-miterlimit="10" stroke-linecap="round" stroke-linejoin="round"/>
<path d="M1.66797 5.83073V17.4974C1.66797 18.1891 2.4513 18.5807 3.0013 18.1641L4.4263 17.0974C4.75964 16.8474 5.2263 16.8807 5.5263 17.1807L6.90964 18.5724C7.23464 18.8974 7.76797 18.8974 8.09297 18.5724L9.49297 17.1724C9.78464 16.8807 10.2513 16.8474 10.5763 17.0974L12.0013 18.1641C12.5513 18.5724 13.3346 18.1807 13.3346 17.4974V3.33073C13.3346 2.41406 14.0846 1.66406 15.0013 1.66406H5.83464H5.0013C2.5013 1.66406 1.66797 3.15573 1.66797 4.9974V5.83073Z" stroke="#4E4E4E" stroke-width="1.5" stroke-miterlimit="10" stroke-linecap="round" stroke-linejoin="round"/>
<path d="M7.5 10.8438H10" stroke="#4E4E4E" stroke-width="1.5" stroke-linecap="round" stroke-linejoin="round"/>
<path d="M7.5 7.50781H10" stroke="#4E4E4E" stroke-width="1.5" stroke-linecap="round" stroke-linejoin="round"/>
<path d="M4.99609 10.8359H5.00358" stroke="#4E4E4E" stroke-width="2" stroke-linecap="round" stroke-linejoin="round"/>
<path d="M4.99609 7.5H5.00358" stroke="#4E4E4E" stroke-width="2" stroke-linecap="round" stroke-linejoin="round"/>
</svg>
