<svg width="58" height="58" viewBox="0 0 58 58" fill="none" xmlns="http://www.w3.org/2000/svg">
<path d="M29 53.5C42.531 53.5 53.5 42.531 53.5 29C53.5 15.469 42.531 4.5 29 4.5C15.469 4.5 4.5 15.469 4.5 29C4.5 42.531 15.469 53.5 29 53.5Z" fill="#4E4E4E"/>
<path d="M34.75 29.25V33.625C34.75 38 33 39.75 28.625 39.75H23.375C19 39.75 17.25 38 17.25 33.625V28.375C17.25 24 19 22.25 23.375 22.25H27.75" stroke="#F0F0F3" stroke-width="1.5" stroke-linecap="round" stroke-linejoin="round"/>
<path d="M34.75 29.25H31.25C28.625 29.25 27.75 28.375 27.75 25.75V22.25L34.75 29.25Z" stroke="#F0F0F3" stroke-width="1.5" stroke-linecap="round" stroke-linejoin="round"/>
<path d="M21.625 31.875H26.875" stroke="#F0F0F3" stroke-width="1.5" stroke-linecap="round" stroke-linejoin="round"/>
<path d="M21.625 35.375H25.125" stroke="#F0F0F3" stroke-width="1.5" stroke-linecap="round" stroke-linejoin="round"/>
<path d="M34.5 17.5C34.5 16.9477 34.9477 16.5 35.5 16.5C36.0523 16.5 36.5 16.9477 36.5 17.5V22.5C36.5 23.0523 36.0523 23.5 35.5 23.5C34.9477 23.5 34.5 23.0523 34.5 22.5V17.5Z" fill="#F0F0F3"/>
<path d="M37.5 17.5C37.5 16.9477 37.9477 16.5 38.5 16.5C39.0523 16.5 39.5 16.9477 39.5 17.5V22.5C39.5 23.0523 39.0523 23.5 38.5 23.5C37.9477 23.5 37.5 23.0523 37.5 22.5V17.5Z" fill="#F0F0F3"/>
</svg>
