<svg width="18" height="18" viewBox="0 0 18 18" fill="none" xmlns="http://www.w3.org/2000/svg">
<path d="M16.5 17.0625H1.5C1.1925 17.0625 0.9375 16.8075 0.9375 16.5C0.9375 16.1925 1.1925 15.9375 1.5 15.9375H16.5C16.8075 15.9375 17.0625 16.1925 17.0625 16.5C17.0625 16.8075 16.8075 17.0625 16.5 17.0625Z" fill="#7C7C7C"/>
<path d="M2.77344 16.4991H1.64844L1.68594 7.47655C1.68594 6.83905 1.97844 6.24657 2.48094 5.85657L7.73094 1.76906C8.47344 1.19156 9.51594 1.19156 10.2659 1.76906L15.5159 5.84906C16.0109 6.23906 16.3109 6.84655 16.3109 7.47655V16.4991H15.1859V7.48406C15.1859 7.19906 15.0509 6.92157 14.8259 6.74157L9.57594 2.66156C9.23844 2.39906 8.76594 2.39906 8.42094 2.66156L3.17094 6.74907C2.94594 6.92157 2.81094 7.19906 2.81094 7.48406L2.77344 16.4991Z" fill="#7C7C7C"/>
<path d="M10.875 17.0625H7.125C6.8175 17.0625 6.5625 16.8075 6.5625 16.5V13.875C6.5625 12.945 7.32 12.1875 8.25 12.1875H9.75C10.68 12.1875 11.4375 12.945 11.4375 13.875V16.5C11.4375 16.8075 11.1825 17.0625 10.875 17.0625ZM7.6875 15.9375H10.3125V13.875C10.3125 13.5675 10.0575 13.3125 9.75 13.3125H8.25C7.9425 13.3125 7.6875 13.5675 7.6875 13.875V15.9375Z" fill="#7C7C7C"/>
<path d="M7.125 10.875H5.625C4.905 10.875 4.3125 10.2825 4.3125 9.5625V8.4375C4.3125 7.7175 4.905 7.125 5.625 7.125H7.125C7.845 7.125 8.4375 7.7175 8.4375 8.4375V9.5625C8.4375 10.2825 7.845 10.875 7.125 10.875ZM5.625 8.25C5.52 8.25 5.4375 8.3325 5.4375 8.4375V9.5625C5.4375 9.6675 5.52 9.75 5.625 9.75H7.125C7.23 9.75 7.3125 9.6675 7.3125 9.5625V8.4375C7.3125 8.3325 7.23 8.25 7.125 8.25H5.625Z" fill="#7C7C7C"/>
<path d="M12.375 10.875H10.875C10.155 10.875 9.5625 10.2825 9.5625 9.5625V8.4375C9.5625 7.7175 10.155 7.125 10.875 7.125H12.375C13.095 7.125 13.6875 7.7175 13.6875 8.4375V9.5625C13.6875 10.2825 13.095 10.875 12.375 10.875ZM10.875 8.25C10.77 8.25 10.6875 8.3325 10.6875 8.4375V9.5625C10.6875 9.6675 10.77 9.75 10.875 9.75H12.375C12.48 9.75 12.5625 9.6675 12.5625 9.5625V8.4375C12.5625 8.3325 12.48 8.25 12.375 8.25H10.875Z" fill="#7C7C7C"/>
<path d="M14.2486 5.8125C13.9411 5.8125 13.6861 5.56501 13.6861 5.25751L13.6711 3.5625H10.9336C10.6261 3.5625 10.3711 3.3075 10.3711 3C10.3711 2.6925 10.6261 2.4375 10.9336 2.4375H14.2336C14.5411 2.4375 14.7961 2.68499 14.7961 2.99249L14.8186 5.24249C14.8111 5.55749 14.5636 5.8125 14.2486 5.8125C14.2561 5.8125 14.2486 5.8125 14.2486 5.8125Z" fill="#7C7C7C"/>
</svg>
