<svg width="58" height="58" viewBox="0 0 58 58" fill="none" xmlns="http://www.w3.org/2000/svg">
<path fill-rule="evenodd" clip-rule="evenodd" d="M29.0009 4.83496C42.3484 4.83496 53.1659 15.6525 53.1659 29C53.1659 42.3475 42.3484 53.165 29.0009 53.165C15.6534 53.165 4.83594 42.3475 4.83594 29C4.83594 15.6525 15.6534 4.83496 29.0009 4.83496ZM22.6445 25.6296C22.6097 23.209 28.1459 21.8788 30.6562 22.5441C37.0226 24.2293 27.8106 39.0378 29.401 41.2275C30.286 42.4478 34.312 41.4874 34.312 42.5929C34.312 43.7033 31.5816 46.5789 26.9305 45.6237C22.2744 44.6634 23.5299 41.4128 24.16 38.7923C24.7851 36.1717 27.4807 28.9303 27.4807 27.6747C27.4807 23.7391 22.5845 26.6646 22.6445 25.6296ZM31.7215 12.1865C33.7319 12.1865 35.3572 13.8118 35.3572 15.8223C35.3572 17.8327 33.7319 19.458 31.7215 19.458C29.7111 19.458 28.0858 17.8327 28.0858 15.8223C28.0858 13.8118 29.7111 12.1865 31.7215 12.1865Z" fill="#2E86E7"/>
</svg>
