<svg width="30" height="30" viewBox="0 0 30 30" fill="none" xmlns="http://www.w3.org/2000/svg">
<path d="M15 28.4375C7.5875 28.4375 1.5625 22.4125 1.5625 15C1.5625 7.5875 7.5875 1.5625 15 1.5625C22.4125 1.5625 28.4375 7.5875 28.4375 15C28.4375 22.4125 22.4125 28.4375 15 28.4375ZM15 3.4375C8.625 3.4375 3.4375 8.625 3.4375 15C3.4375 21.375 8.625 26.5625 15 26.5625C21.375 26.5625 26.5625 21.375 26.5625 15C26.5625 8.625 21.375 3.4375 15 3.4375Z" fill="#FC3C44"/>
<path d="M15 17.1875C14.4875 17.1875 14.0625 16.7625 14.0625 16.25V10C14.0625 9.4875 14.4875 9.0625 15 9.0625C15.5125 9.0625 15.9375 9.4875 15.9375 10V16.25C15.9375 16.7625 15.5125 17.1875 15 17.1875Z" fill="#FC3C44"/>
<path d="M15 21.2516C14.8375 21.2516 14.675 21.2141 14.525 21.1516C14.375 21.0891 14.2375 21.0016 14.1125 20.8891C14 20.7641 13.9125 20.6391 13.85 20.4766C13.7875 20.3266 13.75 20.1641 13.75 20.0016C13.75 19.8391 13.7875 19.6766 13.85 19.5266C13.9125 19.3766 14 19.2391 14.1125 19.1141C14.2375 19.0016 14.375 18.9141 14.525 18.8516C14.825 18.7266 15.175 18.7266 15.475 18.8516C15.625 18.9141 15.7625 19.0016 15.8875 19.1141C16 19.2391 16.0875 19.3766 16.15 19.5266C16.2125 19.6766 16.25 19.8391 16.25 20.0016C16.25 20.1641 16.2125 20.3266 16.15 20.4766C16.0875 20.6391 16 20.7641 15.8875 20.8891C15.7625 21.0016 15.625 21.0891 15.475 21.1516C15.325 21.2141 15.1625 21.2516 15 21.2516Z" fill="#FC3C44"/>
</svg>
