<svg width="20" height="20" viewBox="0 0 20 20" fill="none" xmlns="http://www.w3.org/2000/svg">
<path d="M10.0013 18.9577C5.05964 18.9577 1.04297 14.941 1.04297 9.99935C1.04297 5.05768 5.05964 1.04102 10.0013 1.04102C14.943 1.04102 18.9596 5.05768 18.9596 9.99935C18.9596 14.941 14.943 18.9577 10.0013 18.9577ZM10.0013 2.29102C5.7513 2.29102 2.29297 5.74935 2.29297 9.99935C2.29297 14.2493 5.7513 17.7077 10.0013 17.7077C14.2513 17.7077 17.7096 14.2493 17.7096 9.99935C17.7096 5.74935 14.2513 2.29102 10.0013 2.29102Z" fill="#6A6A6A"/>
<path d="M10 11.4577C9.65833 11.4577 9.375 11.1743 9.375 10.8327V6.66602C9.375 6.32435 9.65833 6.04102 10 6.04102C10.3417 6.04102 10.625 6.32435 10.625 6.66602V10.8327C10.625 11.1743 10.3417 11.4577 10 11.4577Z" fill="#6A6A6A"/>
<path d="M10.0013 14.1664C9.89297 14.1664 9.78464 14.1414 9.68464 14.0997C9.58464 14.0581 9.49297 13.9997 9.40964 13.9247C9.33464 13.8414 9.2763 13.7581 9.23464 13.6497C9.19297 13.5497 9.16797 13.4414 9.16797 13.3331C9.16797 13.2247 9.19297 13.1164 9.23464 13.0164C9.2763 12.9164 9.33464 12.8247 9.40964 12.7414C9.49297 12.6664 9.58464 12.6081 9.68464 12.5664C9.88464 12.4831 10.118 12.4831 10.318 12.5664C10.418 12.6081 10.5096 12.6664 10.593 12.7414C10.668 12.8247 10.7263 12.9164 10.768 13.0164C10.8096 13.1164 10.8346 13.2247 10.8346 13.3331C10.8346 13.4414 10.8096 13.5497 10.768 13.6497C10.7263 13.7581 10.668 13.8414 10.593 13.9247C10.5096 13.9997 10.418 14.0581 10.318 14.0997C10.218 14.1414 10.1096 14.1664 10.0013 14.1664Z" fill="#6A6A6A"/>
</svg>
