<svg width="24" height="24" viewBox="0 0 24 24" fill="none" xmlns="http://www.w3.org/2000/svg">
<path d="M11.9989 14.1695C9.86891 14.1695 8.12891 12.4395 8.12891 10.2995C8.12891 8.15945 9.86891 6.43945 11.9989 6.43945C14.1289 6.43945 15.8689 8.16945 15.8689 10.3095C15.8689 12.4495 14.1289 14.1695 11.9989 14.1695ZM11.9989 7.93945C10.6989 7.93945 9.62891 8.99945 9.62891 10.3095C9.62891 11.6195 10.6889 12.6795 11.9989 12.6795C13.3089 12.6795 14.3689 11.6195 14.3689 10.3095C14.3689 8.99945 13.2989 7.93945 11.9989 7.93945Z" fill="#448EE4"/>
<path d="M12.0016 22.76C10.5216 22.76 9.03164 22.2 7.87164 21.09C4.92164 18.25 1.66164 13.72 2.89164 8.33C4.00164 3.44 8.27164 1.25 12.0016 1.25C12.0016 1.25 12.0016 1.25 12.0116 1.25C15.7416 1.25 20.0116 3.44 21.1216 8.34C22.3416 13.73 19.0816 18.25 16.1316 21.09C14.9716 22.2 13.4816 22.76 12.0016 22.76ZM12.0016 2.75C9.09164 2.75 5.35164 4.3 4.36164 8.66C3.28164 13.37 6.24164 17.43 8.92164 20C10.6516 21.67 13.3616 21.67 15.0916 20C17.7616 17.43 20.7216 13.37 19.6616 8.66C18.6616 4.3 14.9116 2.75 12.0016 2.75Z" fill="#448EE4"/>
</svg>
