<svg width="22" height="21" viewBox="0 0 22 21" fill="none" xmlns="http://www.w3.org/2000/svg">
<path d="M16.152 9.40621C15.8044 9.40621 15.5161 9.11794 15.5161 8.77032V7.0746C15.5161 4.40385 14.7615 2.62335 11.0648 2.62335C7.36818 2.62335 6.61358 4.40385 6.61358 7.0746V8.77032C6.61358 9.11794 6.32531 9.40621 5.97769 9.40621C5.63007 9.40621 5.3418 9.11794 5.3418 8.77032V7.0746C5.3418 4.61581 5.9353 1.35156 11.0648 1.35156C16.1944 1.35156 16.7879 4.61581 16.7879 7.0746V8.77032C16.7879 9.11794 16.4996 9.40621 16.152 9.40621Z" fill="#448EE4"/>
<path d="M15.301 19.5789H6.82245C3.0834 19.5789 1.94727 18.4428 1.94727 14.7037V13.008C1.94727 9.26894 3.0834 8.13281 6.82245 8.13281H15.301C19.0401 8.13281 20.1762 9.26894 20.1762 13.008V14.7037C20.1762 18.4428 19.0401 19.5789 15.301 19.5789ZM6.82245 9.4046C3.78712 9.4046 3.21905 9.98114 3.21905 13.008V14.7037C3.21905 17.7306 3.78712 18.3071 6.82245 18.3071H15.301C18.3364 18.3071 18.9044 17.7306 18.9044 14.7037V13.008C18.9044 9.98114 18.3364 9.4046 15.301 9.4046H6.82245Z" fill="#448EE4"/>
<path d="M7.67598 14.7045C7.56576 14.7045 7.45554 14.6791 7.35379 14.6367C7.24357 14.5943 7.1588 14.535 7.07401 14.4587C6.9214 14.2976 6.82812 14.0856 6.82812 13.8567C6.82812 13.7465 6.85355 13.6362 6.89594 13.5345C6.93834 13.4243 6.9977 13.3395 7.07401 13.2547C7.1588 13.1784 7.24357 13.119 7.35379 13.0766C7.65902 12.941 8.04055 13.0173 8.27795 13.2547C8.35426 13.3395 8.41363 13.4328 8.45602 13.5345C8.49842 13.6362 8.52384 13.7465 8.52384 13.8567C8.52384 14.0771 8.43057 14.2976 8.27795 14.4587C8.11686 14.6113 7.89643 14.7045 7.67598 14.7045Z" fill="#448EE4"/>
<path d="M11.0627 14.7043C10.8423 14.7043 10.6218 14.611 10.4607 14.4584C10.3081 14.2973 10.2148 14.0853 10.2148 13.8564C10.2148 13.7462 10.2318 13.636 10.2827 13.5342C10.3251 13.4325 10.3844 13.3392 10.4607 13.2545C10.6557 13.0594 10.9525 12.9662 11.2238 13.0255C11.2831 13.034 11.334 13.0509 11.3849 13.0764C11.4358 13.0933 11.4866 13.1188 11.5375 13.1527C11.5799 13.1781 11.6223 13.2205 11.6647 13.2545C11.741 13.3392 11.8003 13.4325 11.8427 13.5342C11.8851 13.636 11.9106 13.7462 11.9106 13.8564C11.9106 14.0853 11.8173 14.2973 11.6647 14.4584C11.6223 14.4923 11.5799 14.5262 11.5375 14.5601C11.4866 14.594 11.4358 14.6195 11.3849 14.6365C11.334 14.6619 11.2831 14.6789 11.2238 14.6873C11.1729 14.6958 11.1136 14.7043 11.0627 14.7043Z" fill="#448EE4"/>
<path d="M14.4572 14.7043C14.2283 14.7043 14.0164 14.611 13.8553 14.4584C13.779 14.3736 13.7196 14.2804 13.6772 14.1786C13.6348 14.0769 13.6094 13.9666 13.6094 13.8564C13.6094 13.636 13.7026 13.4155 13.8553 13.2545C13.8977 13.2205 13.94 13.1866 13.9824 13.1527C14.0333 13.1188 14.0842 13.0933 14.135 13.0764C14.1859 13.0509 14.2368 13.034 14.2877 13.0255C14.5674 12.9662 14.8557 13.0594 15.0592 13.2545C15.2118 13.4155 15.3051 13.6275 15.3051 13.8564C15.3051 13.9666 15.2797 14.0769 15.2373 14.1786C15.1949 14.2888 15.1355 14.3736 15.0592 14.4584C14.8981 14.611 14.6777 14.7043 14.4572 14.7043Z" fill="#448EE4"/>
</svg>
