<svg width="24" height="24" viewBox="0 0 24 24" fill="none" xmlns="http://www.w3.org/2000/svg">
<path d="M17.4389 15.3695C17.2489 15.3695 17.0589 15.2995 16.9089 15.1495C16.6189 14.8595 16.6189 14.3795 16.9089 14.0895L18.9389 12.0595L16.9089 10.0295C16.6189 9.73945 16.6189 9.25945 16.9089 8.96945C17.1989 8.67945 17.6789 8.67945 17.9689 8.96945L20.5289 11.5295C20.8189 11.8195 20.8189 12.2995 20.5289 12.5895L17.9689 15.1495C17.8189 15.2995 17.6289 15.3695 17.4389 15.3695Z" fill="#448EE4"/>
<path d="M19.9317 12.8105H9.76172C9.35172 12.8105 9.01172 12.4705 9.01172 12.0605C9.01172 11.6505 9.35172 11.3105 9.76172 11.3105H19.9317C20.3417 11.3105 20.6817 11.6505 20.6817 12.0605C20.6817 12.4705 20.3417 12.8105 19.9317 12.8105Z" fill="#448EE4"/>
<path d="M11.7617 20.75C6.61172 20.75 3.01172 17.15 3.01172 12C3.01172 6.85 6.61172 3.25 11.7617 3.25C12.1717 3.25 12.5117 3.59 12.5117 4C12.5117 4.41 12.1717 4.75 11.7617 4.75C7.49172 4.75 4.51172 7.73 4.51172 12C4.51172 16.27 7.49172 19.25 11.7617 19.25C12.1717 19.25 12.5117 19.59 12.5117 20C12.5117 20.41 12.1717 20.75 11.7617 20.75Z" fill="#448EE4"/>
</svg>
