<svg width="20" height="20" viewBox="0 0 20 20" fill="none" xmlns="http://www.w3.org/2000/svg">
<path d="M18.3307 7.49961V12.4996C18.3307 14.5829 17.9141 16.0413 16.9807 16.9829L11.6641 11.6663L18.1057 5.22461C18.2557 5.88294 18.3307 6.63294 18.3307 7.49961Z" stroke="#448EE4" stroke-width="1.5" stroke-linecap="round" stroke-linejoin="round"/>
<path d="M18.1057 5.22435L5.22239 18.1077C2.71405 17.5327 1.66406 15.7993 1.66406 12.4993V7.49935C1.66406 3.33268 3.33073 1.66602 7.4974 1.66602H12.4974C15.7974 1.66602 17.5307 2.71602 18.1057 5.22435Z" stroke="#448EE4" stroke-width="1.5" stroke-linecap="round" stroke-linejoin="round"/>
<path d="M16.9849 16.9827C16.0432 17.916 14.5849 18.3327 12.5016 18.3327H7.50157C6.6349 18.3327 5.8849 18.2577 5.22656 18.1077L11.6682 11.666L16.9849 16.9827Z" stroke="#448EE4" stroke-width="1.5" stroke-linecap="round" stroke-linejoin="round"/>
<path d="M5.20364 6.64961C5.7703 4.20794 9.43698 4.20794 10.0036 6.64961C10.3286 8.08294 9.42863 9.29961 8.63697 10.0496C8.06197 10.5996 7.15365 10.5996 6.57032 10.0496C5.77865 9.29961 4.8703 8.08294 5.20364 6.64961Z" stroke="#448EE4" stroke-width="1.5"/>
<path d="M7.57615 7.25065H7.58364" stroke="#448EE4" stroke-width="2" stroke-linecap="round" stroke-linejoin="round"/>
</svg>
