<svg width="20" height="20" viewBox="0 0 20 20" fill="none" xmlns="http://www.w3.org/2000/svg">
<path d="M12.5013 18.9577H7.5013C2.9763 18.9577 1.04297 17.0243 1.04297 12.4993V7.49935C1.04297 2.97435 2.9763 1.04102 7.5013 1.04102H12.5013C17.0263 1.04102 18.9596 2.97435 18.9596 7.49935V12.4993C18.9596 17.0243 17.0263 18.9577 12.5013 18.9577ZM7.5013 2.29102C3.65964 2.29102 2.29297 3.65768 2.29297 7.49935V12.4993C2.29297 16.341 3.65964 17.7077 7.5013 17.7077H12.5013C16.343 17.7077 17.7096 16.341 17.7096 12.4993V7.49935C17.7096 3.65768 16.343 2.29102 12.5013 2.29102H7.5013Z" fill="#4E4E4E"/>
<path d="M18.3346 8.95898H1.66797C1.3263 8.95898 1.04297 8.67565 1.04297 8.33398C1.04297 7.99232 1.3263 7.70898 1.66797 7.70898H18.3346C18.6763 7.70898 18.9596 7.99232 18.9596 8.33398C18.9596 8.67565 18.6763 8.95898 18.3346 8.95898Z" fill="#4E4E4E"/>
<path d="M10 18.959C9.65833 18.959 9.375 18.6757 9.375 18.334V8.33398C9.375 7.99232 9.65833 7.70898 10 7.70898C10.3417 7.70898 10.625 7.99232 10.625 8.33398V18.334C10.625 18.6757 10.3417 18.959 10 18.959Z" fill="#4E4E4E"/>
</svg>
