<svg width="25" height="27" viewBox="0 0 25 27" fill="none" xmlns="http://www.w3.org/2000/svg">
<path d="M21.7902 8.64609H3.21161C2.78843 8.64609 2.4375 8.28183 2.4375 7.84258C2.4375 7.40332 2.78843 7.03906 3.21161 7.03906H21.7902C22.2134 7.03906 22.5643 7.40332 22.5643 7.84258C22.5643 8.28183 22.2134 8.64609 21.7902 8.64609Z" fill="#292D32"/>
<path d="M21.7902 14.0035H3.21161C2.78843 14.0035 2.4375 13.6393 2.4375 13.2C2.4375 12.7607 2.78843 12.3965 3.21161 12.3965H21.7902C22.2134 12.3965 22.5643 12.7607 22.5643 13.2C22.5643 13.6393 22.2134 14.0035 21.7902 14.0035Z" fill="#292D32"/>
<path d="M21.7902 19.3609H3.21161C2.78843 19.3609 2.4375 18.9967 2.4375 18.5574C2.4375 18.1182 2.78843 17.7539 3.21161 17.7539H21.7902C22.2134 17.7539 22.5643 18.1182 22.5643 18.5574C22.5643 18.9967 22.2134 19.3609 21.7902 19.3609Z" fill="#292D32"/>
</svg>
