<svg width="24" height="24" viewBox="0 0 24 24" fill="none" xmlns="http://www.w3.org/2000/svg">
<path d="M11.43 18L8.91 13.604V12.568H9.75C10.086 12.568 10.38 12.5213 10.632 12.428C10.8933 12.3253 11.108 12.1807 11.276 11.994C11.4533 11.8073 11.5747 11.5833 11.64 11.322H8.91V10.286H11.626C11.57 10.0433 11.472 9.82867 11.332 9.642C11.2013 9.45533 11.024 9.31067 10.8 9.208C10.5853 9.096 10.324 9.04 10.016 9.04H8.91V8.004H15.224V9.04H13.026C13.1847 9.21733 13.3153 9.40867 13.418 9.614C13.53 9.81933 13.6047 10.0433 13.642 10.286H15.224V11.322H13.67C13.5767 12.0127 13.3107 12.554 12.872 12.946C12.4333 13.3287 11.8687 13.59 11.178 13.73L13.922 18H11.43Z" fill="#4E4E4E"/>
<path d="M12 22.75C6.07 22.75 1.25 17.93 1.25 12C1.25 6.07 6.07 1.25 12 1.25C12.41 1.25 12.75 1.59 12.75 2C12.75 2.41 12.41 2.75 12 2.75C6.9 2.75 2.75 6.9 2.75 12C2.75 17.1 6.9 21.25 12 21.25C17.1 21.25 21.25 17.1 21.25 12C21.25 11.59 21.59 11.25 22 11.25C22.41 11.25 22.75 11.59 22.75 12C22.75 17.93 17.93 22.75 12 22.75Z" fill="#4E4E4E"/>
<path d="M21 7.75H17C16.59 7.75 16.25 7.41 16.25 7V3C16.25 2.59 16.59 2.25 17 2.25C17.41 2.25 17.75 2.59 17.75 3V6.25H21C21.41 6.25 21.75 6.59 21.75 7C21.75 7.41 21.41 7.75 21 7.75Z" fill="#4E4E4E"/>
<path d="M16.9995 7.74994C16.8095 7.74994 16.6195 7.67994 16.4695 7.52994C16.1795 7.23994 16.1795 6.75994 16.4695 6.46994L21.4695 1.46994C21.7595 1.17994 22.2395 1.17994 22.5295 1.46994C22.8195 1.75994 22.8195 2.23994 22.5295 2.52994L17.5295 7.52994C17.3795 7.67994 17.1895 7.74994 16.9995 7.74994Z" fill="#4E4E4E"/>
</svg>
