<svg width="24" height="24" viewBox="0 0 24 24" fill="none" xmlns="http://www.w3.org/2000/svg">
<path d="M11.43 18L8.91 13.604V12.568H9.75C10.086 12.568 10.38 12.5213 10.632 12.428C10.8933 12.3253 11.108 12.1807 11.276 11.994C11.4533 11.8073 11.5747 11.5833 11.64 11.322H8.91V10.286H11.626C11.57 10.0433 11.472 9.82867 11.332 9.642C11.2013 9.45533 11.024 9.31067 10.8 9.208C10.5853 9.096 10.324 9.04 10.016 9.04H8.91V8.004H15.224V9.04H13.026C13.1847 9.21733 13.3153 9.40867 13.418 9.614C13.53 9.81933 13.6047 10.0433 13.642 10.286H15.224V11.322H13.67C13.5767 12.0127 13.3107 12.554 12.872 12.946C12.4333 13.3287 11.8687 13.59 11.178 13.73L13.922 18H11.43Z" fill="#4E4E4E"/>
<path d="M22 12C22 17.52 17.52 22 12 22C6.48 22 2 17.52 2 12C2 6.48 6.48 2 12 2" stroke="#4E4E4E" stroke-width="1.5" stroke-linecap="round" stroke-linejoin="round"/>
<path d="M22 6V2H18" stroke="#4E4E4E" stroke-width="1.5" stroke-linecap="round" stroke-linejoin="round"/>
<path d="M17 7L22 2" stroke="#4E4E4E" stroke-width="1.5" stroke-linecap="round" stroke-linejoin="round"/>
</svg>
