<svg width="20" height="20" viewBox="0 0 20 20" fill="none" xmlns="http://www.w3.org/2000/svg">
<path d="M10.8763 13.5448H9.30965C8.20131 13.5448 7.29297 12.6115 7.29297 11.4615C7.29297 11.1198 7.5763 10.8365 7.91797 10.8365C8.25964 10.8365 8.54297 11.1198 8.54297 11.4615C8.54297 11.9198 8.88465 12.2948 9.30965 12.2948H10.8763C11.2013 12.2948 11.4596 12.0031 11.4596 11.6448C11.4596 11.1948 11.3346 11.1281 11.0513 11.0281L8.54297 10.1531C8.00964 9.96978 7.29297 9.57812 7.29297 8.35312C7.29297 7.31146 8.11798 6.45312 9.12631 6.45312H10.693C11.8013 6.45312 12.7096 7.38646 12.7096 8.53646C12.7096 8.87812 12.4263 9.16146 12.0846 9.16146C11.743 9.16146 11.4596 8.87812 11.4596 8.53646C11.4596 8.07812 11.118 7.70312 10.693 7.70312H9.12631C8.80131 7.70312 8.54297 7.99479 8.54297 8.35312C8.54297 8.80312 8.66796 8.86978 8.95129 8.96978L11.4596 9.84478C11.993 10.0281 12.7096 10.4198 12.7096 11.6448C12.7096 12.6948 11.8846 13.5448 10.8763 13.5448Z" fill="#B4B4B4"/>
<path d="M10 14.375C9.65833 14.375 9.375 14.0917 9.375 13.75V6.25C9.375 5.90833 9.65833 5.625 10 5.625C10.3417 5.625 10.625 5.90833 10.625 6.25V13.75C10.625 14.0917 10.3417 14.375 10 14.375Z" fill="#B4B4B4"/>
<path d="M10.0013 18.9557C5.05964 18.9557 1.04297 14.9391 1.04297 9.9974C1.04297 5.05573 5.05964 1.03906 10.0013 1.03906C10.343 1.03906 10.6263 1.3224 10.6263 1.66406C10.6263 2.00573 10.343 2.28906 10.0013 2.28906C5.7513 2.28906 2.29297 5.7474 2.29297 9.9974C2.29297 14.2474 5.7513 17.7057 10.0013 17.7057C14.2513 17.7057 17.7096 14.2474 17.7096 9.9974C17.7096 9.65573 17.993 9.3724 18.3346 9.3724C18.6763 9.3724 18.9596 9.65573 18.9596 9.9974C18.9596 14.9391 14.943 18.9557 10.0013 18.9557Z" fill="#B4B4B4"/>
<path d="M17.5013 6.45833H14.168C13.8263 6.45833 13.543 6.175 13.543 5.83333V2.5C13.543 2.15833 13.8263 1.875 14.168 1.875C14.5096 1.875 14.793 2.15833 14.793 2.5V5.20833H17.5013C17.843 5.20833 18.1263 5.49167 18.1263 5.83333C18.1263 6.175 17.843 6.45833 17.5013 6.45833Z" fill="#B4B4B4"/>
<path d="M14.1659 6.46146C14.0076 6.46146 13.8492 6.40312 13.7242 6.27812C13.4826 6.03646 13.4826 5.63646 13.7242 5.39479L17.8909 1.22812C18.1326 0.986458 18.5326 0.986458 18.7742 1.22812C19.0159 1.46979 19.0159 1.86979 18.7742 2.11146L14.6076 6.27812C14.4826 6.40312 14.3242 6.46146 14.1659 6.46146Z" fill="#B4B4B4"/>
</svg>
