<svg width="21" height="21" viewBox="0 0 21 21" fill="none" xmlns="http://www.w3.org/2000/svg">
<path d="M15.0413 17.902H10.802C10.4543 17.902 10.1661 17.6137 10.1661 17.2661C10.1661 16.9184 10.4543 16.6302 10.802 16.6302H15.0413C17.4661 16.6302 18.6447 15.4517 18.6447 13.0268V7.93963C18.6447 5.51476 17.4661 4.33624 15.0413 4.33624H6.56268C4.13781 4.33624 2.95929 5.51476 2.95929 7.93963V9.63535C2.95929 9.98297 2.67101 10.2712 2.32339 10.2712C1.97577 10.2712 1.6875 9.98297 1.6875 9.63535V7.93963C1.6875 4.84495 3.468 3.06445 6.56268 3.06445H15.0413C18.1359 3.06445 19.9164 4.84495 19.9164 7.93963V13.0268C19.9164 16.1215 18.1359 17.902 15.0413 17.902Z" fill="#448EE4"/>
<path d="M10.8024 13.2396C9.28475 13.2396 8.04688 12.0017 8.04688 10.4841C8.04688 8.96639 9.28475 7.72852 10.8024 7.72852C12.3201 7.72852 13.558 8.96639 13.558 10.4841C13.558 12.0017 12.3201 13.2396 10.8024 13.2396ZM10.8024 9.0003C9.98847 9.0003 9.31866 9.67011 9.31866 10.4841C9.31866 11.298 9.98847 11.9678 10.8024 11.9678C11.6164 11.9678 12.2862 11.298 12.2862 10.4841C12.2862 9.67011 11.6164 9.0003 10.8024 9.0003Z" fill="#448EE4"/>
<path d="M16.3117 13.2396C15.9641 13.2396 15.6758 12.9513 15.6758 12.6037V8.36441C15.6758 8.01679 15.9641 7.72852 16.3117 7.72852C16.6593 7.72852 16.9476 8.01679 16.9476 8.36441V12.6037C16.9476 12.9513 16.6593 13.2396 16.3117 13.2396Z" fill="#448EE4"/>
<path d="M7.83447 16.155C7.48685 16.155 7.19858 15.8667 7.19858 15.5191V14.4338C7.19858 14.2473 7.04598 14.0862 6.85098 14.0862H2.32339C1.97577 14.0862 1.6875 13.798 1.6875 13.4503C1.6875 13.1027 1.97577 12.8145 2.32339 12.8145H6.85098C7.74123 12.8145 8.47036 13.5436 8.47036 14.4338V15.5191C8.47036 15.8667 8.18209 16.155 7.83447 16.155Z" fill="#448EE4"/>
<path d="M3.36347 15.1216C3.20238 15.1216 3.04131 15.0623 2.91413 14.9351L1.87972 13.9008C1.63384 13.6549 1.63384 13.2479 1.87972 13.002L2.91413 11.9676C3.16001 11.7217 3.56698 11.7217 3.81286 11.9676C4.05874 12.2135 4.05874 12.6205 3.81286 12.8663L3.22784 13.4514L3.81286 14.0364C4.05874 14.2823 4.05874 14.6892 3.81286 14.9351C3.68568 15.0623 3.52457 15.1216 3.36347 15.1216Z" fill="#448EE4"/>
<path d="M7.83447 18.5632H3.30689C2.41663 18.5632 1.6875 17.834 1.6875 16.9438V15.8585C1.6875 15.5109 1.97577 15.2227 2.32339 15.2227C2.67101 15.2227 2.95929 15.5109 2.95929 15.8585V16.9438C2.95929 17.1303 3.11188 17.2914 3.30689 17.2914H7.83447C8.18209 17.2914 8.47036 17.5797 8.47036 17.9273C8.47036 18.2749 8.18209 18.5632 7.83447 18.5632Z" fill="#448EE4"/>
<path d="M6.80177 19.5962C6.64067 19.5962 6.47956 19.5369 6.35238 19.4097C6.1065 19.1638 6.1065 18.7568 6.35238 18.5109L6.9374 17.926L6.35238 17.3409C6.1065 17.0951 6.1065 16.6881 6.35238 16.4422C6.59826 16.1963 7.00523 16.1963 7.2511 16.4422L8.28552 17.4766C8.5314 17.7225 8.5314 18.1294 8.28552 18.3753L7.2511 19.4097C7.1324 19.5369 6.96286 19.5962 6.80177 19.5962Z" fill="#448EE4"/>
</svg>
