<svg width="21" height="22" viewBox="0 0 21 22" fill="none" xmlns="http://www.w3.org/2000/svg">
<path d="M11.0378 21.7485C10.8725 21.7485 10.7072 21.7485 10.5419 21.7388C5.09748 21.4958 0.547484 17.111 0.168317 11.7638C-0.162238 7.17493 2.49193 2.88743 6.76971 1.08882C7.98498 0.58326 8.62665 0.972149 8.89887 1.25409C9.17109 1.52632 9.55026 2.15826 9.04471 3.3152C8.59748 4.34576 8.37387 5.44437 8.38359 6.57215C8.40304 10.8791 11.9808 14.5346 16.3461 14.7096C16.978 14.7388 17.6003 14.6902 18.203 14.5833C19.4864 14.3499 20.0211 14.8652 20.2253 15.1958C20.4294 15.5263 20.6628 16.236 19.885 17.286C17.8239 20.1055 14.5475 21.7485 11.0378 21.7485ZM1.61693 11.6569C1.94748 16.2846 5.89471 20.0763 10.6003 20.2805C13.7989 20.436 16.8322 18.9777 18.6989 16.4305C18.8447 16.2263 18.9128 16.0805 18.9419 16.0027C18.8544 15.993 18.6989 15.9833 18.4558 16.0319C17.7461 16.1583 17.0072 16.2069 16.278 16.1777C11.1447 15.9735 6.94471 11.6666 6.91554 6.59159C6.91554 5.24993 7.17804 3.95687 7.71276 2.74159C7.80998 2.5277 7.82943 2.38187 7.83915 2.30409C7.75165 2.30409 7.59609 2.32354 7.34332 2.43048C3.63915 3.98604 1.34471 7.69993 1.61693 11.6569Z" fill="#FDB12F"/>
</svg>
