<svg width="25" height="25" viewBox="0 0 25 25" fill="none" xmlns="http://www.w3.org/2000/svg">
<path d="M16.8447 14.6865L16.8456 14.6857C18.0458 13.4741 18.047 11.5144 16.8447 10.3122L10.0531 3.52049C9.65336 3.12077 8.99507 3.12077 8.59536 3.52049C8.19565 3.9202 8.19565 4.57849 8.59536 4.97821L15.387 11.7699C15.7894 12.1722 15.7894 12.8265 15.387 13.2288L8.59536 20.0205C8.38975 20.2261 8.29297 20.4887 8.29297 20.7493C8.29297 21.0173 8.40517 21.2747 8.58937 21.472L8.58926 21.4721L8.59536 21.4782C8.99507 21.8779 9.65336 21.8779 10.0531 21.4782L16.8447 14.6865Z" fill="#448EE4" stroke="#448EE4" stroke-width="0.5"/>
</svg>
