<svg width="35" height="35" viewBox="0 0 35 35" fill="none" xmlns="http://www.w3.org/2000/svg">
<path d="M26.25 15.6764C25.6521 15.6764 25.1562 15.1806 25.1562 14.5827V11.666C25.1562 7.07227 23.8583 4.00977 17.5 4.00977C11.1417 4.00977 9.84375 7.07227 9.84375 11.666V14.5827C9.84375 15.1806 9.34792 15.6764 8.75 15.6764C8.15208 15.6764 7.65625 15.1806 7.65625 14.5827V11.666C7.65625 7.43685 8.67708 1.82227 17.5 1.82227C26.3229 1.82227 27.3438 7.43685 27.3438 11.666V14.5827C27.3438 15.1806 26.8479 15.6764 26.25 15.6764Z" fill="#448EE4"/>
<path d="M17.5013 28.0729C14.8909 28.0729 12.7617 25.9437 12.7617 23.3333C12.7617 20.7229 14.8909 18.5938 17.5013 18.5938C20.1117 18.5938 22.2409 20.7229 22.2409 23.3333C22.2409 25.9437 20.1117 28.0729 17.5013 28.0729ZM17.5013 20.7812C16.1013 20.7812 14.9492 21.9333 14.9492 23.3333C14.9492 24.7333 16.1013 25.8854 17.5013 25.8854C18.9013 25.8854 20.0534 24.7333 20.0534 23.3333C20.0534 21.9333 18.9013 20.7812 17.5013 20.7812Z" fill="#448EE4"/>
<path d="M24.793 33.1777H10.2096C3.77839 33.1777 1.82422 31.2236 1.82422 24.7923V21.8757C1.82422 15.4444 3.77839 13.4902 10.2096 13.4902H24.793C31.2242 13.4902 33.1784 15.4444 33.1784 21.8757V24.7923C33.1784 31.2236 31.2242 33.1777 24.793 33.1777ZM10.2096 15.6777C4.9888 15.6777 4.01172 16.6694 4.01172 21.8757V24.7923C4.01172 29.9986 4.9888 30.9902 10.2096 30.9902H24.793C30.0138 30.9902 30.9909 29.9986 30.9909 24.7923V21.8757C30.9909 16.6694 30.0138 15.6777 24.793 15.6777H10.2096Z" fill="#448EE4"/>
</svg>
