<svg width="25" height="25" viewBox="0 0 25 25" fill="none" xmlns="http://www.w3.org/2000/svg">
<path d="M8.15525 10.3135L8.15443 10.3143C6.95419 11.5259 6.953 13.4856 8.15525 14.6878L14.9469 21.4795C15.3466 21.8792 16.0049 21.8792 16.4046 21.4795C16.8044 21.0798 16.8044 20.4215 16.4046 20.0218L9.61297 13.2301C9.21061 12.8278 9.21061 12.1735 9.61297 11.7712L16.4046 4.97952C16.6102 4.77391 16.707 4.5113 16.707 4.25065C16.707 3.98266 16.5948 3.72535 16.4106 3.52799L16.4107 3.52789L16.4046 3.52179C16.0049 3.12208 15.3466 3.12208 14.9469 3.52179L8.15525 10.3135Z" fill="#448EE4" stroke="#448EE4" stroke-width="0.5"/>
</svg>
