<svg width="44" height="44" viewBox="0 0 44 44" fill="none" xmlns="http://www.w3.org/2000/svg">
<circle cx="22" cy="22" r="22" fill="#448EE4"/>
<path d="M22 25C23.6569 25 25 23.6569 25 22C25 20.3431 23.6569 19 22 19C20.3431 19 19 20.3431 19 22C19 23.6569 20.3431 25 22 25Z" stroke="white" stroke-width="1.5" stroke-miterlimit="10" stroke-linecap="round" stroke-linejoin="round"/>
<path d="M12 22.8814V21.1214C12 20.0814 12.85 19.2214 13.9 19.2214C15.71 19.2214 16.45 17.9414 15.54 16.3714C15.02 15.4714 15.33 14.3014 16.24 13.7814L17.97 12.7914C18.76 12.3214 19.78 12.6014 20.25 13.3914L20.36 13.5814C21.26 15.1514 22.74 15.1514 23.65 13.5814L23.76 13.3914C24.23 12.6014 25.25 12.3214 26.04 12.7914L27.77 13.7814C28.68 14.3014 28.99 15.4714 28.47 16.3714C27.56 17.9414 28.3 19.2214 30.11 19.2214C31.15 19.2214 32.01 20.0714 32.01 21.1214V22.8814C32.01 23.9214 31.16 24.7814 30.11 24.7814C28.3 24.7814 27.56 26.0614 28.47 27.6314C28.99 28.5414 28.68 29.7014 27.77 30.2214L26.04 31.2114C25.25 31.6814 24.23 31.4014 23.76 30.6114L23.65 30.4214C22.75 28.8514 21.27 28.8514 20.36 30.4214L20.25 30.6114C19.78 31.4014 18.76 31.6814 17.97 31.2114L16.24 30.2214C15.33 29.7014 15.02 28.5314 15.54 27.6314C16.45 26.0614 15.71 24.7814 13.9 24.7814C12.85 24.7814 12 23.9214 12 22.8814Z" stroke="white" stroke-width="1.5" stroke-miterlimit="10" stroke-linecap="round" stroke-linejoin="round"/>
</svg>
