<svg width="28" height="28" viewBox="0 0 28 28" fill="none" xmlns="http://www.w3.org/2000/svg">
<path d="M12.8359 2.3335H10.5026C4.66927 2.3335 2.33594 4.66683 2.33594 10.5002V17.5002C2.33594 23.3335 4.66927 25.6668 10.5026 25.6668H17.5026C23.3359 25.6668 25.6693 23.3335 25.6693 17.5002V15.1668" stroke="#448EE4" stroke-width="2" stroke-linecap="round" stroke-linejoin="round"/>
<path d="M18.7122 3.52314L9.51888 12.7165C9.16888 13.0665 8.81888 13.7548 8.74888 14.2565L8.24722 17.7681C8.06055 19.0398 8.95888 19.9265 10.2305 19.7515L13.7422 19.2498C14.2322 19.1798 14.9205 18.8298 15.2822 18.4798L24.4755 9.28647C26.0622 7.69981 26.8089 5.85647 24.4755 3.52314C22.1422 1.18981 20.2989 1.93647 18.7122 3.52314Z" stroke="#448EE4" stroke-width="2" stroke-miterlimit="10" stroke-linecap="round" stroke-linejoin="round"/>
<path d="M17.3945 4.8418C18.1762 7.63013 20.3579 9.8118 23.1579 10.6051" stroke="#448EE4" stroke-width="2" stroke-miterlimit="10" stroke-linecap="round" stroke-linejoin="round"/>
</svg>
