<svg width="21" height="21" viewBox="0 0 21 21" fill="none" xmlns="http://www.w3.org/2000/svg">
<path d="M16.7778 10.4045H13.8781C13.5305 10.4045 13.2422 10.1162 13.2422 9.76857V3.84204C13.2422 3.21462 13.4881 2.62961 13.929 2.18872C14.3698 1.74783 14.9549 1.50195 15.5823 1.50195H15.5908C16.6506 1.51043 17.651 1.92588 18.4141 2.68047C19.1772 3.45203 19.5926 4.46946 19.5926 5.52928V7.58109C19.6011 9.26833 18.465 10.4045 16.7778 10.4045ZM14.514 9.13267H16.7778C17.7613 9.13267 18.3293 8.56461 18.3293 7.58109V5.52928C18.3293 4.80012 18.0411 4.10488 17.5239 3.57921C17.0067 3.07049 16.3114 2.78222 15.5908 2.77374C15.5908 2.77374 15.5908 2.77374 15.5823 2.77374C15.3025 2.77374 15.0312 2.88396 14.8277 3.08745C14.6242 3.29093 14.514 3.55377 14.514 3.84204V9.13267V9.13267Z" fill="#448EE4"/>
<path d="M7.93742 20.2227C7.53892 20.2227 7.16587 20.07 6.88607 19.7818L5.47863 18.3658C5.40232 18.2895 5.28362 18.2811 5.19883 18.3489L3.749 19.4341C3.29963 19.7733 2.70614 19.8326 2.19742 19.5783C1.68871 19.3239 1.375 18.8152 1.375 18.2471V5.52928C1.375 2.96875 2.84179 1.50195 5.40232 1.50195H15.5766C15.9242 1.50195 16.2125 1.79022 16.2125 2.13785C16.2125 2.48547 15.9242 2.77374 15.5766 2.77374C14.9916 2.77374 14.5168 3.24854 14.5168 3.83356V18.2471C14.5168 18.8152 14.2031 19.3239 13.6944 19.5783C13.1857 19.8326 12.5922 19.7818 12.1428 19.4426L10.693 18.3574C10.6082 18.2895 10.4895 18.3065 10.4216 18.3743L8.99724 19.7987C8.70897 20.07 8.33591 20.2227 7.93742 20.2227ZM5.31754 17.0347C5.70755 17.0347 6.08909 17.1788 6.37736 17.4756L7.7848 18.8915C7.83567 18.9424 7.9035 18.9509 7.93742 18.9509C7.92894 18.9339 8.03916 18.9424 8.09003 18.8915L9.51443 17.4671C10.0401 16.9414 10.871 16.8906 11.456 17.3399L12.8974 18.4167C12.9906 18.4845 13.0754 18.4591 13.1178 18.4337C13.1602 18.4082 13.2365 18.3574 13.2365 18.2471V3.83356C13.2365 3.45203 13.3298 3.08745 13.4909 2.77374H5.39384C3.5116 2.77374 2.63831 3.64703 2.63831 5.52928V18.2471C2.63831 18.3658 2.71461 18.4167 2.75701 18.4422C2.80788 18.4676 2.89266 18.4845 2.97745 18.4167L4.42729 17.3315C4.69012 17.1364 5.00383 17.0347 5.31754 17.0347Z" fill="#448EE4"/>
<path d="M10.2757 9.55499H5.61246C5.26483 9.55499 4.97656 9.26672 4.97656 8.9191C4.97656 8.57147 5.26483 8.2832 5.61246 8.2832H10.2757C10.6233 8.2832 10.9116 8.57147 10.9116 8.9191C10.9116 9.26672 10.6233 9.55499 10.2757 9.55499Z" fill="#448EE4"/>
</svg>
