<svg width="20" height="20" viewBox="0 0 20 20" fill="none" xmlns="http://www.w3.org/2000/svg">
<path d="M16.182 9.78906H13.332C12.9904 9.78906 12.707 9.50573 12.707 9.16406V3.33906C12.707 2.72239 12.9487 2.1474 13.382 1.71406C13.8154 1.28073 14.3904 1.03906 15.007 1.03906H15.0154C16.057 1.0474 17.0404 1.45573 17.7904 2.1974C18.5404 2.95573 18.9487 3.95573 18.9487 4.9974V7.01406C18.957 8.67239 17.8404 9.78906 16.182 9.78906ZM13.957 8.53906H16.182C17.1487 8.53906 17.707 7.98073 17.707 7.01406V4.9974C17.707 4.28073 17.4237 3.5974 16.9154 3.08073C16.407 2.58073 15.7237 2.2974 15.0154 2.28906C15.0154 2.28906 15.0154 2.28906 15.007 2.28906C14.732 2.28906 14.4654 2.39739 14.2654 2.59739C14.0654 2.79739 13.957 3.05573 13.957 3.33906V8.53906Z" fill="#B4B4B4"/>
<path d="M7.50078 19.4391C7.10911 19.4391 6.74245 19.2891 6.46745 19.0057L5.08411 17.6141C5.00911 17.5391 4.89244 17.5307 4.80911 17.5974L3.38411 18.6641C2.94244 18.9974 2.35912 19.0557 1.85912 18.8057C1.35912 18.5557 1.05078 18.0557 1.05078 17.4974V4.9974C1.05078 2.48073 2.49245 1.03906 5.00911 1.03906H15.0091C15.3508 1.03906 15.6341 1.3224 15.6341 1.66406C15.6341 2.00573 15.3508 2.28906 15.0091 2.28906C14.4341 2.28906 13.9674 2.75573 13.9674 3.33073V17.4974C13.9674 18.0557 13.6591 18.5557 13.1591 18.8057C12.6591 19.0557 12.0758 19.0057 11.6341 18.6724L10.2091 17.6057C10.1258 17.5391 10.0091 17.5557 9.94245 17.6224L8.54245 19.0224C8.25911 19.2891 7.89245 19.4391 7.50078 19.4391ZM4.92578 16.3057C5.30912 16.3057 5.68412 16.4474 5.96745 16.7391L7.35078 18.1307C7.40078 18.1807 7.46745 18.1891 7.50078 18.1891C7.49245 18.1724 7.60078 18.1807 7.65078 18.1307L9.05078 16.7307C9.56745 16.2141 10.3841 16.1641 10.9591 16.6057L12.3758 17.6641C12.4674 17.7307 12.5508 17.7057 12.5924 17.6807C12.6341 17.6557 12.7091 17.6057 12.7091 17.4974V3.33073C12.7091 2.95573 12.8008 2.5974 12.9591 2.28906H5.00078C3.15078 2.28906 2.29245 3.1474 2.29245 4.9974V17.4974C2.29245 17.6141 2.36745 17.6641 2.40911 17.6891C2.45911 17.7141 2.54245 17.7307 2.62578 17.6641L4.05078 16.5974C4.30911 16.4057 4.61745 16.3057 4.92578 16.3057Z" fill="#B4B4B4"/>
<path d="M9.79036 8.96094H5.20703C4.86536 8.96094 4.58203 8.6776 4.58203 8.33594C4.58203 7.99427 4.86536 7.71094 5.20703 7.71094H9.79036C10.132 7.71094 10.4154 7.99427 10.4154 8.33594C10.4154 8.6776 10.132 8.96094 9.79036 8.96094Z" fill="#B4B4B4"/>
</svg>
