<svg width="58" height="58" viewBox="0 0 58 58" fill="none" xmlns="http://www.w3.org/2000/svg">
<g clip-path="url(#clip0_312_84)">
<path d="M29 53.5C42.531 53.5 53.5 42.531 53.5 29C53.5 15.469 42.531 4.5 29 4.5C15.469 4.5 4.5 15.469 4.5 29C4.5 42.531 15.469 53.5 29 53.5Z" fill="#FE345B"/>
<path d="M34.1347 20.3995H30.018C29.4114 20.3995 28.0897 20.5695 27.3855 21.2195L24.103 23.5595L25.0997 24.7495L28.458 22.3495C28.7289 22.1095 29.4114 21.9095 30.018 21.9095H34.1347C35.1097 21.9095 36.1605 22.6295 36.3772 23.4395L38.9989 30.7895C39.1722 31.2295 39.1397 31.6295 38.9122 31.9195C38.6739 32.2295 38.2405 32.4095 37.7097 32.4095H33.3764C32.813 32.4095 32.293 32.6295 31.9355 33.0095C31.5672 33.3995 31.4047 33.9195 31.4914 34.4595L32.033 37.6695C32.163 38.2295 31.7514 38.8595 31.1664 39.0395C30.6355 39.2195 29.953 38.9595 29.7147 38.6395L25.273 32.5395L23.9297 33.3695L28.3714 39.4695C29.0539 40.4095 30.5489 40.8595 31.7189 40.4495C33.073 40.0395 33.9397 38.6595 33.6364 37.3795L33.1055 34.2295C33.0947 34.1595 33.0947 34.0595 33.1705 33.9795C33.2247 33.9295 33.3005 33.8995 33.3872 33.8995H37.7205C38.7822 33.8995 39.703 33.4895 40.2447 32.7795C40.7755 32.0895 40.8839 31.1795 40.5372 30.2995L37.948 23.0195C37.5472 21.5695 35.8789 20.3995 34.1347 20.3995Z" fill="white"/>
<path d="M22.3281 21.5016H21.2448C19.2406 21.5016 18.2656 22.3716 18.2656 24.1516V33.9516C18.2656 35.7316 19.2406 36.6016 21.2448 36.6016H22.3281C24.3323 36.6016 25.3073 35.7316 25.3073 33.9516V24.1516C25.3073 22.3716 24.3323 21.5016 22.3281 21.5016ZM21.2448 35.1016C20.064 35.1016 19.8906 34.8416 19.8906 33.9516V24.1516C19.8906 23.2616 20.064 23.0016 21.2448 23.0016H22.3281C23.509 23.0016 23.6823 23.2616 23.6823 24.1516V33.9516C23.6823 34.8416 23.509 35.1016 22.3281 35.1016H21.2448Z" fill="white"/>
</g>
<defs>
<clipPath id="clip0_312_84">
<rect width="49" height="49" fill="white" transform="translate(4.5 4.5)"/>
</clipPath>
</defs>
</svg>
