<svg width="25" height="25" viewBox="0 0 25 25" fill="none" xmlns="http://www.w3.org/2000/svg">
<path d="M20.4 23.0703H4.6C2.68 23.0703 1.75 22.0903 1.75 20.0903V16.0503C1.75 14.0403 2.68 13.0703 4.6 13.0703H20.4C22.32 13.0703 23.25 14.0503 23.25 16.0503V20.0903C23.25 22.0903 22.32 23.0703 20.4 23.0703ZM4.6 14.5703C3.59 14.5703 3.25 14.7803 3.25 16.0503V20.0903C3.25 21.3603 3.59 21.5703 4.6 21.5703H20.4C21.41 21.5703 21.75 21.3603 21.75 20.0903V16.0503C21.75 14.7803 21.41 14.5703 20.4 14.5703H4.6Z" fill="#4E4E4E"/>
<path d="M20.4 11.5703H4.6C2.68 11.5703 1.75 10.5903 1.75 8.59031V4.55031C1.75 2.54031 2.68 1.57031 4.6 1.57031H20.4C22.32 1.57031 23.25 2.55031 23.25 4.55031V8.59031C23.25 10.5903 22.32 11.5703 20.4 11.5703ZM4.6 3.07031C3.59 3.07031 3.25 3.28031 3.25 4.55031V8.59031C3.25 9.86031 3.59 10.0703 4.6 10.0703H20.4C21.41 10.0703 21.75 9.86031 21.75 8.59031V4.55031C21.75 3.28031 21.41 3.07031 20.4 3.07031H4.6Z" fill="#4E4E4E"/>
</svg>
