<svg width="34" height="34" viewBox="0 0 34 34" fill="none" xmlns="http://www.w3.org/2000/svg">
<path d="M13.4609 16.3984H20.5443C21.2632 16.3984 21.8568 15.8048 21.8568 15.0859C21.8568 14.367 21.2632 13.7734 20.5443 13.7734H13.4609C12.742 13.7734 12.1484 14.367 12.1484 15.0859C12.1484 15.8048 12.742 16.3984 13.4609 16.3984Z" fill="#448EE4" stroke="#448EE4" stroke-width="0.5"/>
<path d="M15.6875 18.7122C15.6875 19.4311 16.2811 20.0247 17 20.0247C17.7189 20.0247 18.3125 19.4311 18.3125 18.7122V11.6289C18.3125 10.91 17.7189 10.3164 17 10.3164C16.2811 10.3164 15.6875 10.91 15.6875 11.6289V18.7122Z" fill="#448EE4" stroke="#448EE4" stroke-width="0.5"/>
<path d="M25.8784 29.503L25.8762 29.5018L18.9649 25.6638C18.9645 25.6636 18.9641 25.6634 18.9637 25.6631C18.3939 25.34 17.6978 25.192 16.9998 25.192C16.3018 25.192 15.6057 25.34 15.0359 25.6631C15.0355 25.6634 15.0351 25.6636 15.0347 25.6638L8.12341 29.5018L8.12122 29.503C7.42938 29.8964 6.86632 29.9203 6.55471 29.7437C6.25309 29.5728 6.01563 29.0748 6.01563 28.2612V8.30036C6.01563 6.01594 7.88703 4.14453 10.1715 4.14453H23.8281C26.1126 4.14453 27.984 6.01594 27.984 8.30036V28.2612C27.984 29.0698 27.7488 29.5613 27.4395 29.7468C27.1331 29.9307 26.5759 29.8997 25.8784 29.503ZM24.6103 31.793C24.6108 31.7933 24.6113 31.7936 24.6118 31.7939C25.4101 32.2518 26.2454 32.4779 27.0156 32.4779C27.6366 32.4779 28.2481 32.3264 28.7863 32.0039C29.9746 31.3087 30.6231 29.9222 30.6231 28.2612V8.30036C30.6231 4.56396 27.5787 1.51953 23.8423 1.51953H10.1715C6.43505 1.51953 3.39062 4.56396 3.39062 8.30036V28.2612C3.39062 29.9222 4.0392 31.3088 5.22763 32.0039C6.41691 32.7138 7.94575 32.6029 9.40037 31.7947L16.3131 27.9559C16.3132 27.9558 16.3134 27.9558 16.3135 27.9557C16.4679 27.8707 16.725 27.817 17.0069 27.817C17.2887 27.817 17.5459 27.8707 17.7002 27.9557C17.7004 27.9558 17.7005 27.9558 17.7007 27.9559L24.6103 31.793Z" fill="#448EE4" stroke="#448EE4" stroke-width="0.5"/>
</svg>
