<svg width="21" height="22" viewBox="0 0 21 22" fill="none" xmlns="http://www.w3.org/2000/svg">
<path d="M10.8064 19.9573C9.88222 19.9573 8.96654 19.686 8.24586 19.1518L4.60006 16.4302C3.6335 15.7095 2.87891 14.2088 2.87891 13.0048V6.70527C2.87891 5.39957 3.837 4.00908 5.06639 3.55124L9.2972 1.96575C10.1366 1.65204 11.4592 1.65204 12.2986 1.96575L16.5379 3.55124C17.7673 4.00908 18.7254 5.39957 18.7254 6.70527V13.0048C18.7254 14.2088 17.9708 15.7095 17.0042 16.4302L13.3584 19.1518C12.6462 19.686 11.7305 19.9573 10.8064 19.9573ZM9.74656 3.15274L5.51576 4.73823C4.7866 5.00955 4.15069 5.92524 4.15069 6.70527V13.0048C4.15069 13.8103 4.71877 14.938 5.35466 15.4128L9.00044 18.1344C9.97548 18.8635 11.6288 18.8635 12.6038 18.1344L16.2496 15.4128C16.894 14.9295 17.4536 13.8018 17.4536 13.0048V6.70527C17.4536 5.93372 16.8177 5.01803 16.0885 4.73823L11.8577 3.15274C11.2981 2.94078 10.3146 2.94078 9.74656 3.15274Z" fill="#448EE4"/>
<path d="M10.8046 10.5544C10.7877 10.5544 10.7707 10.5544 10.7453 10.5544C9.5159 10.5205 8.61719 9.57938 8.61719 8.43477C8.61719 7.26473 9.57525 6.30664 10.7453 6.30664C11.9153 6.30664 12.8734 7.26473 12.8734 8.43477C12.8649 9.58786 11.9662 10.5205 10.8216 10.5629C10.8131 10.5544 10.8131 10.5544 10.8046 10.5544ZM10.7453 7.57843C10.2705 7.57843 9.88897 7.95997 9.88897 8.43477C9.88897 8.90109 10.2536 9.27413 10.7114 9.29109C10.7114 9.29109 10.7538 9.29109 10.8046 9.29109C11.254 9.26565 11.6016 8.89261 11.6016 8.43477C11.6101 7.95997 11.2201 7.57843 10.7453 7.57843Z" fill="#448EE4"/>
<path d="M10.804 15.3698C10.0749 15.3698 9.33724 15.1748 8.76917 14.7933C8.20111 14.4202 7.87891 13.8691 7.87891 13.2841C7.87891 12.699 8.20111 12.1479 8.76917 11.7664C9.91378 11.0033 11.7027 11.0118 12.8389 11.7664C13.4069 12.1395 13.7291 12.6906 13.7291 13.2756C13.7291 13.8606 13.4069 14.4117 12.8389 14.7933C12.2708 15.1748 11.5332 15.3698 10.804 15.3698ZM9.47288 12.8177C9.26092 12.9534 9.14221 13.123 9.15069 13.2756C9.15069 13.4282 9.2694 13.5978 9.47288 13.7334C10.1851 14.2082 11.423 14.2082 12.1352 13.7334C12.3471 13.5978 12.4658 13.4282 12.4658 13.2756C12.4658 13.123 12.3471 12.9534 12.1436 12.8177C11.4314 12.3514 10.1851 12.3514 9.47288 12.8177Z" fill="#448EE4"/>
</svg>
