<svg fill="rgb(0, 128, 0)" width="24px" height="24px" viewBox="0 0 1.08 1.08" version="1.1" preserveAspectRatio="xMidYMid meet" xmlns="http://www.w3.org/2000/svg" xmlns:xlink="http://www.w3.org/1999/xlink"><title>form-line</title><path d="M0.63 0.36H0.21a0.03 0.03 0 0 1 -0.03 -0.03V0.21a0.03 0.03 0 0 1 0.03 -0.03h0.42a0.03 0.03 0 0 1 0.03 0.03v0.12a0.03 0.03 0 0 1 -0.03 0.03ZM0.24 0.3h0.36V0.238H0.24Z" class="clr-i-outline clr-i-outline-path-1"/><path d="M0.63 0.422H0.21a0.03 0.03 0 0 0 -0.03 0.03V0.57a0.03 0.03 0 0 0 0.03 0.03h0.341L0.66 0.489v-0.037a0.03 0.03 0 0 0 -0.03 -0.03ZM0.6 0.54H0.24v-0.06h0.36Z" class="clr-i-outline clr-i-outline-path-2"/><path d="M0.332 0.945v-0.002l0.01 -0.042H0.12V0.12h0.6v0.307l0.06 -0.057V0.09a0.03 0.03 0 0 0 -0.03 -0.03H0.09a0.03 0.03 0 0 0 -0.03 0.03v0.84a0.03 0.03 0 0 0 0.03 0.03h0.24a0.103 0.103 0 0 1 0.002 -0.015Z" class="clr-i-outline clr-i-outline-path-3"/><path d="m0.66 0.575 -0.023 0.024a0.03 0.03 0 0 0 0.023 -0.024Z" class="clr-i-outline clr-i-outline-path-4"/><path d="M0.18 0.808a0.03 0.03 0 0 0 0.03 0.03h0.145l0.009 -0.039 0.004 -0.017v-0.002H0.24V0.72h0.19l0.06 -0.06H0.21a0.03 0.03 0 0 0 -0.03 0.03Z" class="clr-i-outline clr-i-outline-path-5"/><path d="m1.005 0.5 -0.101 -0.101a0.048 0.048 0 0 0 -0.068 0L0.424 0.813 0.39 0.957a0.048 0.048 0 0 0 0.038 0.057 0.046 0.046 0 0 0 0.009 0 0.034 0.034 0 0 0 0.011 0l0.145 -0.032L1.005 0.57a0.048 0.048 0 0 0 0 -0.068ZM0.563 0.927l-0.11 0.024 0.027 -0.109L0.788 0.531l0.085 0.085Zm0.344 -0.346 -0.085 -0.085L0.87 0.45l0.085 0.085Z" class="clr-i-outline clr-i-outline-path-6"/><path x="0" y="0" width="36" height="36" fill-opacity="0" d="M0 0H1.08V1.08H0V0z"/></svg>