<svg width="58" height="58" viewBox="0 0 58 58" fill="none" xmlns="http://www.w3.org/2000/svg">
<path d="M29.0026 4.83203C15.6868 4.83203 4.83594 15.6829 4.83594 28.9987C4.83594 42.3145 15.6868 53.1654 29.0026 53.1654C42.3184 53.1654 53.1693 42.3145 53.1693 28.9987C53.1693 15.6829 42.3184 4.83203 29.0026 4.83203ZM40.5543 23.4404L26.8518 37.1429C26.5134 37.4812 26.0543 37.6745 25.5709 37.6745C25.0876 37.6745 24.6284 37.4812 24.2901 37.1429L17.4509 30.3037C16.7501 29.6029 16.7501 28.4429 17.4509 27.742C18.1518 27.0412 19.3118 27.0412 20.0126 27.742L25.5709 33.3004L37.9926 20.8787C38.6934 20.1779 39.8534 20.1779 40.5543 20.8787C41.2551 21.5795 41.2551 22.7154 40.5543 23.4404Z" fill="#43D966"/>
</svg>
