<svg width="24" height="24" viewBox="0 0 24 24" fill="none" xmlns="http://www.w3.org/2000/svg">
<path d="M12.1085 18.6076C15.5986 18.6076 18.428 15.7783 18.428 12.2882C18.428 8.79806 15.5986 5.96875 12.1085 5.96875C8.61837 5.96875 5.78906 8.79806 5.78906 12.2882C5.78906 15.7783 8.61837 18.6076 12.1085 18.6076Z" stroke="white" stroke-width="1.94444" stroke-linecap="round" stroke-linejoin="round"/>
<path d="M19.0506 19.2342L18.9242 19.1078M18.9242 5.47726L19.0506 5.35087L18.9242 5.47726ZM5.16727 19.2342L5.29366 19.1078L5.16727 19.2342ZM12.1089 2.64809V2.57031V2.64809ZM12.1089 22.0148V21.937V22.0148ZM2.4645 12.2925H2.38672H2.4645ZM21.8312 12.2925H21.7534H21.8312ZM5.29366 5.47726L5.16727 5.35087L5.29366 5.47726Z" stroke="white" stroke-width="2.59259" stroke-linecap="round" stroke-linejoin="round"/>
</svg>
