<svg width="24px" height="24px" viewBox="0 0 15.36 15.36" version="1.1" xml:space="preserve" xmlns="http://www.w3.org/2000/svg" xmlns:xlink="http://www.w3.org/1999/xlink"><style type="text/css">.st0{fill:rgb(0, 128, 0);}
	.st1{fill:none;stroke:rgb(0, 128, 0);stroke-width:32;stroke-linecap:round;stroke-linejoin:round;stroke-miterlimit:10;}</style><g id="Layer_1"/><g id="Layer_2"><g><path class="st0" d="M7.68 1.305C4.159 1.305 1.305 4.159 1.305 7.68S4.159 14.055 7.68 14.055 14.055 11.201 14.055 7.68 11.201 1.305 7.68 1.305zm3.684 5.383L7.496 10.556c-0.238 0.238 -0.556 0.37 -0.893 0.37s-0.654 -0.131 -0.893 -0.37l-1.715 -1.715c-0.249 -0.249 -0.386 -0.581 -0.386 -0.933s0.137 -0.684 0.386 -0.933c0.249 -0.249 0.581 -0.387 0.933 -0.387s0.684 0.137 0.933 0.387l0.741 0.741 2.894 -2.894c0.249 -0.249 0.581 -0.387 0.933 -0.387s0.684 0.137 0.933 0.387c0.249 0.249 0.386 0.581 0.386 0.933s-0.137 0.684 -0.386 0.933z"/></g></g></svg>