<svg width="20" height="21" viewBox="0 0 20 21" fill="none" xmlns="http://www.w3.org/2000/svg">
<path d="M17.5 5.15104C14.725 4.87604 11.9333 4.73438 9.15 4.73438C7.5 4.73438 5.85 4.81771 4.2 4.98438L2.5 5.15104" stroke="#FC3C44" stroke-width="1.6" stroke-linecap="round" stroke-linejoin="round"/>
<path d="M7.08203 4.30898L7.26536 3.21732C7.3987 2.42565 7.4987 1.83398 8.90703 1.83398H11.0904C12.4987 1.83398 12.607 2.45898 12.732 3.22565L12.9154 4.30898" stroke="#FC3C44" stroke-width="1.6" stroke-linecap="round" stroke-linejoin="round"/>
<path d="M15.7096 7.78516L15.168 16.1768C15.0763 17.4852 15.0013 18.5018 12.6763 18.5018H7.3263C5.0013 18.5018 4.9263 17.4852 4.83464 16.1768L4.29297 7.78516" stroke="#FC3C44" stroke-width="1.6" stroke-linecap="round" stroke-linejoin="round"/>
<path d="M8.60938 13.918H11.3844" stroke="#FC3C44" stroke-width="1.6" stroke-linecap="round" stroke-linejoin="round"/>
<path d="M7.91797 10.584H12.0846" stroke="#FC3C44" stroke-width="1.6" stroke-linecap="round" stroke-linejoin="round"/>
</svg>
