<svg width="35" height="35" viewBox="0 0 35 35" fill="none" xmlns="http://www.w3.org/2000/svg">
<path d="M17.4987 18.5931C12.8758 18.5931 9.11328 14.8306 9.11328 10.2077C9.11328 5.58477 12.8758 1.82227 17.4987 1.82227C22.1216 1.82227 25.8841 5.58477 25.8841 10.2077C25.8841 14.8306 22.1216 18.5931 17.4987 18.5931ZM17.4987 4.00977C14.0862 4.00977 11.3008 6.79518 11.3008 10.2077C11.3008 13.6202 14.0862 16.4056 17.4987 16.4056C20.9112 16.4056 23.6966 13.6202 23.6966 10.2077C23.6966 6.79518 20.9112 4.00977 17.4987 4.00977Z" fill="#448EE4"/>
<path d="M30.0268 33.1771C29.4289 33.1771 28.9331 32.6812 28.9331 32.0833C28.9331 27.0521 23.7997 22.9687 17.4997 22.9687C11.1997 22.9687 6.06641 27.0521 6.06641 32.0833C6.06641 32.6812 5.57057 33.1771 4.97266 33.1771C4.37474 33.1771 3.87891 32.6812 3.87891 32.0833C3.87891 25.8562 9.98932 20.7812 17.4997 20.7812C25.0101 20.7812 31.1206 25.8562 31.1206 32.0833C31.1206 32.6812 30.6247 33.1771 30.0268 33.1771Z" fill="#448EE4"/>
</svg>
