<svg width="58" height="58" viewBox="0 0 58 58" fill="none" xmlns="http://www.w3.org/2000/svg">
<path d="M29.0026 4.83203C15.6868 4.83203 4.83594 15.6829 4.83594 28.9987C4.83594 42.3145 15.6868 53.1654 29.0026 53.1654C42.3184 53.1654 53.1693 42.3145 53.1693 28.9987C53.1693 15.6829 42.3184 4.83203 29.0026 4.83203ZM27.1901 19.332C27.1901 18.3412 28.0118 17.5195 29.0026 17.5195C29.9934 17.5195 30.8151 18.3412 30.8151 19.332V31.4154C30.8151 32.4062 29.9934 33.2279 29.0026 33.2279C28.0118 33.2279 27.1901 32.4062 27.1901 31.4154V19.332ZM31.2259 39.5837C31.1051 39.8979 30.9359 40.1395 30.7184 40.3812C30.4768 40.5987 30.2109 40.7679 29.9209 40.8887C29.6309 41.0095 29.3168 41.082 29.0026 41.082C28.6884 41.082 28.3743 41.0095 28.0843 40.8887C27.7943 40.7679 27.5284 40.5987 27.2868 40.3812C27.0693 40.1395 26.9001 39.8979 26.7793 39.5837C26.6584 39.2937 26.5859 38.9795 26.5859 38.6654C26.5859 38.3512 26.6584 38.037 26.7793 37.747C26.9001 37.457 27.0693 37.1912 27.2868 36.9495C27.5284 36.732 27.7943 36.5629 28.0843 36.442C28.6643 36.2004 29.3409 36.2004 29.9209 36.442C30.2109 36.5629 30.4768 36.732 30.7184 36.9495C30.9359 37.1912 31.1051 37.457 31.2259 37.747C31.3468 38.037 31.4193 38.3512 31.4193 38.6654C31.4193 38.9795 31.3468 39.2937 31.2259 39.5837Z" fill="#FCC121"/>
</svg>
