<svg width="18" height="18" viewBox="0 0 18 18" fill="none" xmlns="http://www.w3.org/2000/svg">
<path d="M8.15332 0.667969C4.02382 0.667969 0.662145 4.02675 0.660645 8.15625C0.659895 9.47625 1.00563 10.7649 1.66113 11.9004L0.644531 15.668L4.56885 14.7407C5.6631 15.3377 6.89493 15.6511 8.14893 15.6519H8.15186C12.2806 15.6519 15.6408 12.2923 15.6431 8.16357C15.6446 6.16182 14.8662 4.27977 13.4517 2.86377C12.0372 1.44852 10.1573 0.668719 8.15332 0.667969ZM8.15186 2.16797C9.75386 2.16872 11.2594 2.79332 12.3911 3.92432C13.5229 5.05682 14.1446 6.56161 14.1431 8.16211C14.1416 11.4651 11.4549 14.1519 8.15039 14.1519C7.15064 14.1511 6.16034 13.9001 5.28809 13.4238L4.78271 13.1484L4.22461 13.2803L2.74805 13.6289L3.1084 12.29L3.271 11.6895L2.96045 11.1504C2.43695 10.2444 2.15989 9.2085 2.16064 8.15625C2.16214 4.85475 4.84961 2.16797 8.15186 2.16797ZM5.50195 4.69922C5.3767 4.69922 5.17419 4.74609 5.00244 4.93359C4.83069 5.12034 4.34619 5.57265 4.34619 6.49365C4.34619 7.41465 5.01709 8.30493 5.11084 8.43018C5.20384 8.55468 6.40584 10.5044 8.30859 11.2544C9.88959 11.8776 10.2107 11.7546 10.5542 11.7231C10.8977 11.6924 11.6624 11.2712 11.8184 10.834C11.9744 10.3967 11.9747 10.0206 11.9282 9.94336C11.8817 9.86536 11.7568 9.81885 11.5693 9.7251C11.3826 9.63135 10.4623 9.17944 10.2905 9.11719C10.1188 9.05494 9.99315 9.02344 9.86865 9.21094C9.74415 9.39844 9.38636 9.81886 9.27686 9.94336C9.16736 10.0686 9.05859 10.0854 8.87109 9.9917C8.68359 9.8972 8.08074 9.69902 7.36524 9.06152C6.80873 8.56577 6.43323 7.9541 6.32373 7.7666C6.21498 7.57985 6.31348 7.47728 6.40723 7.38428C6.49123 7.30028 6.59326 7.16565 6.68701 7.05615C6.78001 6.94665 6.81226 6.86864 6.87451 6.74414C6.93676 6.61964 6.9049 6.50977 6.8584 6.41602C6.8119 6.32227 6.44775 5.39784 6.28125 5.02734C6.141 4.71609 5.99288 4.70886 5.85938 4.70361C5.75063 4.69911 5.62645 4.69922 5.50195 4.69922Z" fill="white"/>
</svg>
