<svg width="161" height="43" viewBox="0 0 161 43" fill="none" xmlns="http://www.w3.org/2000/svg">
<path d="M12.4301 42.0163H11.0232C9.78058 41.7481 8.64271 41.2444 7.71544 40.3812C6.93644 39.6774 6.21803 38.9112 5.56761 38.0904C3.43521 35.2981 2.07793 32.13 1.09774 28.7937C0.195826 25.7256 -0.202207 22.6238 0.454932 19.4568C1.18374 15.9381 2.98867 13.1642 6.25562 11.4336C8.88197 10.0407 11.6065 9.62271 14.4655 10.7475C15.3056 11.0732 16.1745 11.337 17.029 11.6312C17.5247 11.8083 18.07 11.7947 18.556 11.5932C19.2176 11.3316 19.8891 11.0916 20.5528 10.8332C23.2155 9.79425 25.9003 9.72151 28.6105 10.6454C31.1034 11.4933 32.9183 13.1143 34.1984 15.366C33.5512 15.8665 32.9106 16.3529 32.2799 16.8523C28.2665 20.0312 28.6877 26.2825 33.2237 28.8187C33.5473 28.997 33.8595 29.1946 34.1587 29.4104C34.7662 29.8534 34.9503 30.3191 34.6482 30.9966C33.9481 32.5654 33.2612 34.1451 32.4431 35.6553C31.4232 37.5248 30.1332 39.213 28.4153 40.5408C26.9621 41.6645 25.3336 42.2378 23.4901 41.8285C22.5474 41.62 21.6411 41.2389 20.7336 40.9045C19.6057 40.4909 18.4601 40.2195 17.2726 40.5788C15.6496 41.0674 14.1071 41.7644 12.4301 42.0163Z" fill="black"/>
<path d="M17.5009 9.5286C16.6894 5.48877 21.2497 0.427303 25.3193 0.421875C25.3733 2.97106 24.6677 5.25643 22.9146 7.15963C21.4702 8.72302 19.6928 9.60025 17.5009 9.5286Z" fill="black"/>
<path d="M60.2678 12.4219C63.1517 12.4219 65.0096 10.4392 65.0096 7.80489C65.0096 5.18444 63.1517 3.17404 60.2678 3.17404H57.1066V12.4219H60.2678ZM60.2678 11.3959H58.2574V4.20004H60.2678C62.5555 4.20004 63.8172 5.80836 63.8172 7.80489C63.8172 9.78756 62.5139 11.3959 60.2678 11.3959ZM69.6986 12.5883C71.7367 12.5883 73.0123 11.0077 73.0123 9.06659C73.0123 7.12551 71.7367 5.55879 69.6986 5.55879C67.6605 5.55879 66.3849 7.12551 66.3849 9.06659C66.3849 11.0077 67.6605 12.5883 69.6986 12.5883ZM69.6986 11.6593C68.2705 11.6593 67.4802 10.4392 67.4802 9.06659C67.4802 7.70784 68.2705 6.48773 69.6986 6.48773C71.1267 6.48773 71.917 7.70784 71.917 9.06659C71.917 10.4392 71.1267 11.6593 69.6986 11.6593ZM81.5567 12.4219L83.6919 5.72517H82.5966L80.9605 11.0631L79.2135 5.72517H78.3123L76.5515 11.0631L74.9154 5.72517H73.834L75.9692 12.4219H77.009L78.756 7.04233L80.503 12.4219H81.5567ZM90.4492 12.4219V7.7217C90.4492 6.2659 89.7144 5.55879 88.3279 5.55879C87.3158 5.55879 86.4007 6.12725 85.9293 6.6957V5.72517H84.8894V12.4219H85.9293V7.52759C86.3314 6.98687 87.094 6.48773 87.912 6.48773C88.8132 6.48773 89.4232 6.84822 89.4232 8.04059V12.4219H90.4492ZM93.5793 12.4219V3.17404H92.5395V12.4219H93.5793ZM98.5791 12.5883C100.617 12.5883 101.893 11.0077 101.893 9.06659C101.893 7.12551 100.617 5.55879 98.5791 5.55879C96.541 5.55879 95.2654 7.12551 95.2654 9.06659C95.2654 11.0077 96.541 12.5883 98.5791 12.5883ZM98.5791 11.6593C97.151 11.6593 96.3607 10.4392 96.3607 9.06659C96.3607 7.70784 97.151 6.48773 98.5791 6.48773C100.007 6.48773 100.797 7.70784 100.797 9.06659C100.797 10.4392 100.007 11.6593 98.5791 11.6593ZM108.815 12.4219V7.81875C108.815 6.19657 107.65 5.55879 106.222 5.55879C105.127 5.55879 104.267 5.91927 103.546 6.66797L104.032 7.38895C104.628 6.7373 105.28 6.46 106.084 6.46C107.054 6.46 107.775 6.973 107.775 7.86035V9.06659C107.234 8.45654 106.472 8.16538 105.557 8.16538C104.42 8.16538 103.228 8.85862 103.228 10.3699C103.228 11.8257 104.434 12.5883 105.557 12.5883C106.458 12.5883 107.234 12.2694 107.775 11.6593V12.4219H108.815ZM105.945 11.8396C104.961 11.8396 104.281 11.2295 104.281 10.3699C104.281 9.52413 104.961 8.91408 105.945 8.91408C106.666 8.91408 107.373 9.19137 107.775 9.7321V11.0077C107.373 11.5623 106.666 11.8396 105.945 11.8396ZM116.806 12.4219V3.17404H115.766V6.7373C115.225 6.00246 114.407 5.55879 113.506 5.55879C111.759 5.55879 110.525 6.93141 110.525 9.08045C110.525 11.2572 111.759 12.5883 113.506 12.5883C114.449 12.5883 115.267 12.103 115.766 11.4236V12.4219H116.806ZM113.769 11.6593C112.41 11.6593 111.606 10.564 111.606 9.08045C111.606 7.59692 112.41 6.48773 113.769 6.48773C114.587 6.48773 115.405 6.98687 115.766 7.56919V10.5917C115.405 11.174 114.587 11.6593 113.769 11.6593ZM125.402 12.5883C127.44 12.5883 128.715 11.0077 128.715 9.06659C128.715 7.12551 127.44 5.55879 125.402 5.55879C123.363 5.55879 122.088 7.12551 122.088 9.06659C122.088 11.0077 123.363 12.5883 125.402 12.5883ZM125.402 11.6593C123.974 11.6593 123.183 10.4392 123.183 9.06659C123.183 7.70784 123.974 6.48773 125.402 6.48773C126.83 6.48773 127.62 7.70784 127.62 9.06659C127.62 10.4392 126.83 11.6593 125.402 11.6593ZM135.97 12.4219V7.7217C135.97 6.2659 135.235 5.55879 133.849 5.55879C132.837 5.55879 131.922 6.12725 131.45 6.6957V5.72517H130.41V12.4219H131.45V7.52759C131.852 6.98687 132.615 6.48773 133.433 6.48773C134.334 6.48773 134.944 6.84822 134.944 8.04059V12.4219H135.97ZM143.354 12.5883C143.95 12.5883 144.324 12.408 144.588 12.1584L144.283 11.3681C144.144 11.5207 143.881 11.6593 143.576 11.6593C143.132 11.6593 142.91 11.2988 142.91 10.7997V6.64025H144.269V5.72517H142.91V3.89501H141.857V5.72517H140.747V6.64025H141.857V11.0215C141.857 12.0198 142.356 12.5883 143.354 12.5883ZM151.298 12.4219V7.69397C151.298 6.23817 150.563 5.55879 149.163 5.55879C148.15 5.55879 147.235 6.12725 146.778 6.6957V3.17404H145.738V12.4219H146.778V7.52759C147.166 6.98687 147.942 6.48773 148.747 6.48773C149.662 6.48773 150.258 6.82049 150.258 8.01286V12.4219H151.298ZM156.41 12.5883C157.492 12.5883 158.393 12.2139 159.073 11.5484L158.573 10.869C158.033 11.4236 157.27 11.7286 156.494 11.7286C155.052 11.7286 154.178 10.6749 154.095 9.41321H159.502V9.14978C159.502 7.13938 158.31 5.55879 156.286 5.55879C154.372 5.55879 152.986 7.12551 152.986 9.06659C152.986 11.1602 154.414 12.5883 156.41 12.5883ZM158.476 8.63678H154.081C154.137 7.62465 154.844 6.41841 156.272 6.41841C157.797 6.41841 158.462 7.65238 158.476 8.63678Z" fill="#448EE4"/>
<path d="M71.1845 36.75L65.3942 21.7223H61.3838L55.5935 36.75H59.2209L60.1672 34.2041H66.6109L67.5572 36.75H71.1845ZM65.7322 31.3878H61.0459L63.389 24.9216L65.7322 31.3878ZM78.723 37.0204C81.5168 37.0204 83.5445 34.925 83.5445 31.2977C83.5445 27.6703 81.5168 25.5975 78.723 25.5975C77.3938 25.5975 76.1996 26.1833 75.366 27.2422V25.8679H72.5047V40.8956H75.366V35.3531C76.2672 36.4796 77.4388 37.0204 78.723 37.0204ZM77.8218 34.4744C76.8981 34.4744 75.8392 33.9112 75.366 33.2127V29.3826C75.8617 28.6616 76.8981 28.1434 77.8218 28.1434C79.4665 28.1434 80.5931 29.4276 80.5931 31.2977C80.5931 33.1902 79.4665 34.4744 77.8218 34.4744ZM91.8584 37.0204C94.6522 37.0204 96.6799 34.925 96.6799 31.2977C96.6799 27.6703 94.6522 25.5975 91.8584 25.5975C90.5291 25.5975 89.335 26.1833 88.5014 27.2422V25.8679H85.64V40.8956H88.5014V35.3531C89.4026 36.4796 90.5742 37.0204 91.8584 37.0204ZM90.9572 34.4744C90.0334 34.4744 88.9745 33.9112 88.5014 33.2127V29.3826C88.9971 28.6616 90.0334 28.1434 90.9572 28.1434C92.6019 28.1434 93.7284 29.4276 93.7284 31.2977C93.7284 33.1902 92.6019 34.4744 90.9572 34.4744ZM109.992 37.0204C114.025 37.0204 116.007 34.9476 116.007 32.1989C116.007 26.5888 107.378 28.1885 107.378 25.8228C107.378 24.9216 108.144 24.3358 109.496 24.3358C111.028 24.3358 112.65 24.854 113.867 25.9805L115.647 23.5923C114.16 22.2179 112.177 21.497 109.789 21.497C106.252 21.497 104.089 23.5698 104.089 26.0706C104.089 31.7257 112.74 29.9008 112.74 32.5143C112.74 33.393 111.907 34.1815 110.127 34.1815C108.054 34.1815 106.409 33.2353 105.351 32.1313L103.593 34.6321C105.013 36.0516 107.085 37.0204 109.992 37.0204ZM121.413 37.0204C122.607 37.0204 123.373 36.7049 123.801 36.3219L123.193 34.1365C123.035 34.3167 122.63 34.4744 122.202 34.4744C121.571 34.4744 121.21 33.9562 121.21 33.2578V28.3687H123.418V25.8679H121.21V22.8938H118.349V25.8679H116.547V28.3687H118.349V34.0238C118.349 35.984 119.408 37.0204 121.413 37.0204ZM130.423 37.0204C134.028 37.0204 136.191 34.3843 136.191 31.2977C136.191 28.211 134.028 25.5975 130.423 25.5975C126.841 25.5975 124.678 28.211 124.678 31.2977C124.678 34.3843 126.841 37.0204 130.423 37.0204ZM130.423 34.4744C128.643 34.4744 127.652 33.01 127.652 31.2977C127.652 29.6079 128.643 28.1434 130.423 28.1434C132.225 28.1434 133.217 29.6079 133.217 31.2977C133.217 33.01 132.225 34.4744 130.423 34.4744ZM141.197 36.75V29.5628C141.67 28.8644 142.932 28.3237 143.878 28.3237C144.216 28.3237 144.464 28.3462 144.667 28.3912V25.5975C143.315 25.5975 141.985 26.386 141.197 27.3323V25.8679H138.335V36.75H141.197ZM151.569 37.0204C153.258 37.0204 154.971 36.5022 156.052 35.5108L154.768 33.6183C154.07 34.2942 152.808 34.6772 151.884 34.6772C150.037 34.6772 148.955 33.5732 148.752 32.2439H156.841V31.568C156.841 28.0308 154.655 25.5975 151.388 25.5975C148.099 25.5975 145.756 28.1434 145.756 31.2977C145.756 34.7899 148.257 37.0204 151.569 37.0204ZM154.092 30.2613H148.73C148.843 29.1798 149.609 27.9406 151.388 27.9406C153.281 27.9406 154.002 29.2249 154.092 30.2613Z" fill="#448EE4"/>
</svg>
