<svg width="95" height="41" viewBox="0 0 95 41" fill="none" xmlns="http://www.w3.org/2000/svg">
<path d="M71.8336 0H79.3748C79.7906 0 80.1233 0.3327 80.1233 0.748575V14.514H71.2097H57.777C57.375 14.514 57.1809 14.0289 57.4581 13.7516L70.7661 0.4436C71.0573 0.152488 71.4454 0 71.8336 0Z" fill="url(#paint0_linear_7592_128760)"/>
<path d="M80.1211 26.3301V40.7194C80.2874 40.6501 80.4399 40.5391 80.5647 40.4144L93.8727 27.1064C94.1499 26.8291 93.9559 26.3439 93.5539 26.3439H80.1211V26.3301Z" fill="url(#paint1_linear_7592_128760)"/>
<path d="M71.2227 14.5273V40.1037C71.2227 40.5195 71.5554 40.8522 71.9712 40.8522H79.5124C79.7342 40.8522 79.9422 40.8107 80.1362 40.7136V14.5273H71.2227Z" fill="#038A44"/>
<path d="M0 31.5109C0 26.0984 4.08339 22.3027 9.52333 22.3027C14.9633 22.3027 19.0193 26.0984 19.0193 31.5109C19.0193 36.9234 14.9633 40.7191 9.52333 40.7191C4.08339 40.7191 0 36.9234 0 31.5109ZM14.3604 31.5109C14.3604 28.6059 12.4694 26.3587 9.52333 26.3587C6.59097 26.3587 4.6726 28.6059 4.6726 31.5109C4.6726 34.3885 6.59097 36.6631 9.52333 36.6631C12.4694 36.6631 14.3604 34.3885 14.3604 31.5109Z" fill="#038A44"/>
<path d="M33.4608 40.3915L25.938 30.0871V40.3915H21.3477V22.5918H26.0751L33.2827 32.3892V22.5918H37.9004V40.3915H33.4608Z" fill="#038A44"/>
<path d="M41.0938 40.3915V22.5918H54.1387V26.593H45.6841V29.3746H53.9605V33.3758H45.6841V36.3904H54.1387V40.3915H41.0938Z" fill="#038A44"/>
<defs>
<linearGradient id="paint0_linear_7592_128760" x1="59.1635" y1="17.4671" x2="86.2134" y2="0.832074" gradientUnits="userSpaceOnUse">
<stop offset="0.00558659" stop-color="#F2CE1B"/>
<stop offset="0.0266" stop-color="#F2CC1B"/>
<stop offset="0.6745" stop-color="#EB9F0D"/>
<stop offset="1" stop-color="#E98D08"/>
</linearGradient>
<linearGradient id="paint1_linear_7592_128760" x1="90.4203" y1="23.1568" x2="76.9676" y2="37.152" gradientUnits="userSpaceOnUse">
<stop stop-color="#1DBA84"/>
<stop offset="1" stop-color="#02561E"/>
</linearGradient>
</defs>
</svg>
